<?xml version="1.0" encoding="UTF-8"?>
<svg width="468px" height="86px" viewBox="0 0 468 86" version="1.1" xmlns="http://www.w3.org/2000/svg" xmlns:xlink="http://www.w3.org/1999/xlink">
    <title>push-away</title>
    <g id="push-away" stroke="none" stroke-width="1" fill="none" fill-rule="evenodd">
        <rect fill="#FFFEFC" x="0" y="0" width="468" height="86"></rect>
        <polygon id="Line-2" stroke="#191D27" fill="#FFF6E5" fill-rule="nonzero" stroke-linecap="square" transform="translate(128.000000, 43.500000) rotate(-180.000000) translate(-128.000000, -43.500000) " points="121 34 140 43.5 121 53 121 45 116 45 116 42 121 42"></polygon>
        <polygon id="Line-2-Copy" stroke="#191D27" fill="#FFF6E5" fill-rule="nonzero" stroke-linecap="square" points="339 34 358 43.5 339 53 339 45 334 45 334 42 339 42"></polygon>
        <path d="M150.90625,40.7607422 C151.134115,40.7607422 151.291178,40.7371419 151.377441,40.6899414 C151.463704,40.6427409 151.506836,40.5638021 151.506836,40.453125 L151.506836,40.453125 L151.506836,39.6523438 C151.506836,39.5416667 151.460449,39.4627279 151.367676,39.4155273 C151.274902,39.3683268 151.112956,39.3447266 150.881836,39.3447266 C150.653971,39.3447266 150.497721,39.367513 150.413086,39.4130859 C150.328451,39.4586589 150.286133,39.5384115 150.286133,39.6523438 L150.286133,39.6523438 L150.286133,40.453125 C150.286133,40.5638021 150.33252,40.6427409 150.425293,40.6899414 C150.518066,40.7371419 150.678385,40.7607422 150.90625,40.7607422 Z M149.763672,48.0019531 C150.330078,48.0019531 150.762207,47.8440755 151.060059,47.5283203 C151.35791,47.2125651 151.506836,46.7519531 151.506836,46.1464844 L151.506836,46.1464844 L151.506836,41.7958984 C151.506836,41.6852214 151.483236,41.6062826 151.436035,41.559082 C151.388835,41.5118815 151.309896,41.4882813 151.199219,41.4882813 L151.199219,41.4882813 L148.416016,41.4882813 C148.337891,41.4882813 148.277669,41.5021159 148.235352,41.5297852 C148.193034,41.5574544 148.161296,41.6070964 148.140137,41.6787109 C148.118978,41.7503255 148.108398,41.8544922 148.108398,41.9912109 C148.108398,42.1279297 148.118978,42.2320964 148.140137,42.3037109 C148.161296,42.3753255 148.193034,42.4241536 148.235352,42.4501953 C148.277669,42.476237 148.337891,42.4892578 148.416016,42.4892578 L148.416016,42.4892578 L150.286133,42.4892578 L150.286133,46.0830078 C150.286133,46.6233724 150.076172,46.8935547 149.65625,46.8935547 C149.50651,46.8935547 149.331543,46.8601888 149.131348,46.793457 C148.931152,46.7267253 148.697591,46.633138 148.430664,46.5126953 C148.362305,46.4866536 148.305339,46.4736328 148.259766,46.4736328 C148.178385,46.4736328 148.106771,46.5053711 148.044922,46.5688477 C147.983073,46.6323242 147.922852,46.7324219 147.864258,46.8691406 C147.805664,47.0058594 147.776367,47.1197917 147.776367,47.2109375 C147.776367,47.3574219 147.849609,47.4664714 147.996094,47.5380859 C148.292318,47.6878255 148.590983,47.8025716 148.89209,47.8823242 C149.193197,47.9620768 149.483724,48.0019531 149.763672,48.0019531 Z M155.398438,46.1074219 C156.042969,46.1074219 156.580078,45.7330729 157.009766,44.984375 L157.009766,44.984375 L157.009766,45.6923828 C157.009766,45.8030599 157.033366,45.8819987 157.080566,45.9291992 C157.127767,45.9763997 157.206706,46 157.317383,46 L157.317383,46 L158.411133,46 C158.489258,46 158.549479,45.9861654 158.591797,45.9584961 C158.634115,45.9308268 158.665853,45.8811849 158.687012,45.8095703 C158.708171,45.7379557 158.71875,45.6337891 158.71875,45.4970703 C158.71875,45.3603516 158.708171,45.2561849 158.687012,45.1845703 C158.665853,45.1129557 158.634115,45.0641276 158.591797,45.0380859 C158.549479,45.0120443 158.489258,44.9990234 158.411133,44.9990234 L158.411133,44.9990234 L158.035156,44.9990234 L158.035156,41.7958984 C158.035156,41.6852214 158.011556,41.6062826 157.964355,41.559082 C157.917155,41.5118815 157.838216,41.4882813 157.727539,41.4882813 L157.727539,41.4882813 L156.291992,41.4882813 C156.213867,41.4882813 156.153646,41.5013021 156.111328,41.5273438 C156.06901,41.5533854 156.037272,41.6022135 156.016113,41.6738281 C155.994954,41.7454427 155.984375,41.8496094 155.984375,41.9863281 C155.984375,42.1230469 155.994954,42.2272135 156.016113,42.2988281 C156.037272,42.3704427 156.06901,42.4200846 156.111328,42.4477539 C156.153646,42.4754232 156.213867,42.4892578 156.291992,42.4892578 L156.291992,42.4892578 L156.814453,42.4892578 L156.814453,43.2851563 C156.814453,43.5846354 156.763184,43.8662109 156.660645,44.1298828 C156.558105,44.3935547 156.422201,44.6043294 156.25293,44.762207 C156.083659,44.9200846 155.904622,44.9990234 155.71582,44.9990234 C155.510742,44.9990234 155.364258,44.9339193 155.276367,44.8037109 C155.188477,44.6735026 155.144531,44.4814453 155.144531,44.2275391 L155.144531,44.2275391 L155.144531,41.7958984 C155.144531,41.6852214 155.120931,41.6062826 155.07373,41.559082 C155.02653,41.5118815 154.947591,41.4882813 154.836914,41.4882813 L154.836914,41.4882813 L153.547852,41.4882813 C153.469727,41.4882813 153.409505,41.5013021 153.367188,41.5273438 C153.32487,41.5533854 153.293132,41.6022135 153.271973,41.6738281 C153.250814,41.7454427 153.240234,41.8496094 153.240234,41.9863281 C153.240234,42.1230469 153.250814,42.2272135 153.271973,42.2988281 C153.293132,42.3704427 153.32487,42.4200846 153.367188,42.4477539 C153.409505,42.4754232 153.469727,42.4892578 153.547852,42.4892578 L153.547852,42.4892578 L153.923828,42.4892578 L153.923828,44.515625 C153.923828,44.8378906 153.984049,45.1186523 154.104492,45.3579102 C154.224935,45.597168 154.396647,45.781901 154.619629,45.9121094 C154.842611,46.0423177 155.102214,46.1074219 155.398438,46.1074219 Z M162.273438,46.1074219 C162.683594,46.1074219 163.034342,46.0463867 163.325684,45.9243164 C163.617025,45.8022461 163.838379,45.6280924 163.989746,45.4018555 C164.141113,45.1756185 164.216797,44.9078776 164.216797,44.5986328 C164.216797,44.2828776 164.143555,44.0289714 163.99707,43.8369141 C163.850586,43.6448568 163.647135,43.4951172 163.386719,43.3876953 C163.207682,43.3160807 163.018066,43.2623698 162.817871,43.2265625 C162.617676,43.1907552 162.366211,43.1549479 162.063477,43.1191406 C161.757487,43.0898438 161.541016,43.0589193 161.414062,43.0263672 C161.173177,42.9677734 161.052734,42.8701172 161.052734,42.7333984 C161.052734,42.6194661 161.107259,42.5283203 161.216309,42.4599609 C161.325358,42.3916016 161.475911,42.3574219 161.667969,42.3574219 C161.99349,42.3574219 162.279948,42.4005534 162.527344,42.4868164 C162.77474,42.5730794 162.994466,42.71875 163.186523,42.9238281 C163.251628,42.9921875 163.370443,43.0263672 163.542969,43.0263672 C163.702474,43.0263672 163.81722,43.0027669 163.887207,42.9555664 C163.957194,42.9083659 163.992188,42.8294271 163.992188,42.71875 L163.992188,42.71875 L163.992188,41.6884766 C163.992188,41.5777995 163.948242,41.4988607 163.860352,41.4516602 C163.772461,41.4044596 163.624349,41.3808594 163.416016,41.3808594 C163.210938,41.3808594 163.068522,41.4044596 162.98877,41.4516602 C162.909017,41.4988607 162.869141,41.5777995 162.869141,41.6884766 L162.869141,41.6884766 L162.869141,41.7373047 C162.488281,41.4996745 162.052083,41.3808594 161.560547,41.3808594 C161.22526,41.3808594 160.92334,41.4370117 160.654785,41.5493164 C160.38623,41.6616211 160.175456,41.8235677 160.022461,42.0351563 C159.869466,42.2467448 159.792969,42.4941406 159.792969,42.7773438 C159.792969,43.3111979 160.017578,43.7018229 160.466797,43.9492188 C160.658854,44.0566406 160.872884,44.1355794 161.108887,44.1860352 C161.344889,44.2364909 161.627279,44.28125 161.956055,44.3203125 C162.252279,44.3626302 162.441081,44.3919271 162.522461,44.4082031 C162.66569,44.4407552 162.773926,44.4814453 162.847168,44.5302734 C162.92041,44.5791016 162.957031,44.6442057 162.957031,44.7255859 C162.957031,44.9957682 162.696615,45.1308594 162.175781,45.1308594 C161.873047,45.1308594 161.594727,45.0836589 161.34082,44.9892578 C161.086914,44.8948568 160.878581,44.7451172 160.71582,44.5400391 C160.644206,44.4488932 160.509115,44.4033203 160.310547,44.4033203 C160.151042,44.4033203 160.03304,44.4277344 159.956543,44.4765625 C159.880046,44.5253906 159.841797,44.6035156 159.841797,44.7109375 L159.841797,44.7109375 L159.841797,45.7998047 C159.841797,45.9104818 159.885742,45.9894206 159.973633,46.0366211 C160.061523,46.0838216 160.209635,46.1074219 160.417969,46.1074219 C160.626302,46.1074219 160.777669,46.0838216 160.87207,46.0366211 C160.966471,45.9894206 161.013672,45.9104818 161.013672,45.7998047 L161.013672,45.7998047 L161.013672,45.7607422 C161.401042,45.991862 161.820964,46.1074219 162.273438,46.1074219 Z M168.455078,46.1074219 C168.946615,46.1074219 169.527669,45.938151 170.198242,45.5996094 C170.266602,45.5638021 170.317871,45.5222982 170.352051,45.4750977 C170.38623,45.4278971 170.40332,45.3684896 170.40332,45.296875 C170.40332,45.2057292 170.374023,45.0869141 170.31543,44.9404297 C170.263346,44.8102214 170.208008,44.7166341 170.149414,44.659668 C170.09082,44.6027018 170.027344,44.5742188 169.958984,44.5742188 C169.916667,44.5742188 169.859701,44.5888672 169.788086,44.6181641 C169.521159,44.7386068 169.287598,44.832194 169.087402,44.8989258 C168.887207,44.9656576 168.71224,44.9990234 168.5625,44.9990234 C168.142578,44.9990234 167.932617,44.7288411 167.932617,44.1884766 L167.932617,44.1884766 L167.932617,42.8310547 L169.744141,42.8310547 C169.858073,42.8310547 169.937826,42.7944336 169.983398,42.7211914 C170.028971,42.6479492 170.051758,42.5104167 170.051758,42.3085938 C170.051758,42.1067708 170.028971,41.9684245 169.983398,41.8935547 C169.937826,41.8186849 169.858073,41.78125 169.744141,41.78125 L169.744141,41.78125 L167.932617,41.78125 L167.932617,40.4042969 C167.932617,40.3261719 167.916341,40.2659505 167.883789,40.2236328 C167.851237,40.1813151 167.793457,40.1495768 167.710449,40.128418 C167.627441,40.1072591 167.50944,40.0966797 167.356445,40.0966797 C167.125326,40.0966797 166.960124,40.1202799 166.86084,40.1674805 C166.761556,40.214681 166.711914,40.2936198 166.711914,40.4042969 L166.711914,40.4042969 L166.711914,41.78125 L165.769531,41.78125 C165.655599,41.78125 165.575846,41.8186849 165.530273,41.8935547 C165.484701,41.9684245 165.461914,42.1067708 165.461914,42.3085938 C165.461914,42.5104167 165.484701,42.6479492 165.530273,42.7211914 C165.575846,42.7944336 165.655599,42.8310547 165.769531,42.8310547 L165.769531,42.8310547 L166.711914,42.8310547 L166.711914,44.2519531 C166.711914,44.8574219 166.86084,45.3180339 167.158691,45.6337891 C167.456543,45.9495443 167.888672,46.1074219 168.455078,46.1074219 Z M174.060547,40.7607422 C174.288411,40.7607422 174.445475,40.7371419 174.531738,40.6899414 C174.618001,40.6427409 174.661133,40.5638021 174.661133,40.453125 L174.661133,40.453125 L174.661133,39.6523438 C174.661133,39.5416667 174.614746,39.4627279 174.521973,39.4155273 C174.429199,39.3683268 174.267253,39.3447266 174.036133,39.3447266 C173.808268,39.3447266 173.652018,39.367513 173.567383,39.4130859 C173.482747,39.4586589 173.44043,39.5384115 173.44043,39.6523438 L173.44043,39.6523438 L173.44043,40.453125 C173.44043,40.5638021 173.486816,40.6427409 173.57959,40.6899414 C173.672363,40.7371419 173.832682,40.7607422 174.060547,40.7607422 Z M176.033203,46 C176.111328,46 176.171549,45.9869792 176.213867,45.9609375 C176.256185,45.9348958 176.287923,45.8860677 176.309082,45.8144531 C176.330241,45.7428385 176.34082,45.6386719 176.34082,45.5019531 C176.34082,45.3652344 176.330241,45.2610677 176.309082,45.1894531 C176.287923,45.1178385 176.256185,45.0681966 176.213867,45.0405273 C176.171549,45.0128581 176.111328,44.9990234 176.033203,44.9990234 L176.033203,44.9990234 L174.661133,44.9990234 L174.661133,41.7958984 C174.661133,41.6852214 174.637533,41.6062826 174.590332,41.559082 C174.543132,41.5118815 174.464193,41.4882813 174.353516,41.4882813 L174.353516,41.4882813 L172.400391,41.4882813 C172.322266,41.4882813 172.262044,41.5021159 172.219727,41.5297852 C172.177409,41.5574544 172.145671,41.6070964 172.124512,41.6787109 C172.103353,41.7503255 172.092773,41.8544922 172.092773,41.9912109 C172.092773,42.1279297 172.103353,42.2320964 172.124512,42.3037109 C172.145671,42.3753255 172.177409,42.4241536 172.219727,42.4501953 C172.262044,42.476237 172.322266,42.4892578 172.400391,42.4892578 L172.400391,42.4892578 L173.44043,42.4892578 L173.44043,44.9990234 L172.107422,44.9990234 C172.029297,44.9990234 171.969076,45.0128581 171.926758,45.0405273 C171.88444,45.0681966 171.852702,45.1178385 171.831543,45.1894531 C171.810384,45.2610677 171.799805,45.3652344 171.799805,45.5019531 C171.799805,45.6386719 171.810384,45.7428385 171.831543,45.8144531 C171.852702,45.8860677 171.88444,45.9348958 171.926758,45.9609375 C171.969076,45.9869792 172.029297,46 172.107422,46 L172.107422,46 L176.033203,46 Z M181.589844,46 C181.667969,46 181.72819,45.9869792 181.770508,45.9609375 C181.812826,45.9348958 181.844564,45.8860677 181.865723,45.8144531 C181.886882,45.7428385 181.897461,45.6386719 181.897461,45.5019531 C181.897461,45.3652344 181.886882,45.2610677 181.865723,45.1894531 C181.844564,45.1178385 181.812826,45.0681966 181.770508,45.0405273 C181.72819,45.0128581 181.667969,44.9990234 181.589844,44.9990234 L181.589844,44.9990234 L180.217773,44.9990234 L180.217773,42.8310547 L181.736328,42.8310547 C181.85026,42.8310547 181.930013,42.7944336 181.975586,42.7211914 C182.021159,42.6479492 182.043945,42.5104167 182.043945,42.3085938 C182.043945,42.1067708 182.021159,41.9684245 181.975586,41.8935547 C181.930013,41.8186849 181.85026,41.78125 181.736328,41.78125 L181.736328,41.78125 L180.217773,41.78125 L180.217773,41.4882813 C180.217773,40.9479167 180.427734,40.6777344 180.847656,40.6777344 C181.156901,40.6777344 181.518229,40.7412109 181.931641,40.8681641 C181.986979,40.8844401 182.03418,40.8925781 182.073242,40.8925781 C182.151367,40.8925781 182.218913,40.8616536 182.275879,40.7998047 C182.332845,40.7379557 182.380859,40.6354167 182.419922,40.4921875 C182.452474,40.375 182.46875,40.2740885 182.46875,40.1894531 C182.46875,40.0983073 182.448405,40.0258789 182.407715,39.972168 C182.367025,39.918457 182.30599,39.8769531 182.224609,39.8476563 C181.729818,39.6621094 181.235026,39.5693359 180.740234,39.5693359 C180.173828,39.5693359 179.741699,39.7272135 179.443848,40.0429688 C179.145996,40.358724 178.99707,40.8193359 178.99707,41.4248047 L178.99707,41.4248047 L178.99707,41.78125 L178.103516,41.78125 C177.989583,41.78125 177.909831,41.8186849 177.864258,41.8935547 C177.818685,41.9684245 177.795898,42.1067708 177.795898,42.3085938 C177.795898,42.5104167 177.818685,42.6479492 177.864258,42.7211914 C177.909831,42.7944336 177.989583,42.8310547 178.103516,42.8310547 L178.103516,42.8310547 L178.99707,42.8310547 L178.99707,44.9990234 L178.103516,44.9990234 C178.025391,44.9990234 177.965169,45.0128581 177.922852,45.0405273 C177.880534,45.0681966 177.848796,45.1178385 177.827637,45.1894531 C177.806478,45.2610677 177.795898,45.3652344 177.795898,45.5019531 C177.795898,45.6386719 177.806478,45.7428385 177.827637,45.8144531 C177.848796,45.8860677 177.880534,45.9348958 177.922852,45.9609375 C177.965169,45.9869792 178.025391,46 178.103516,46 L178.103516,46 L181.589844,46 Z M183.899414,48.0019531 C184.319336,47.9889323 184.661947,47.9327799 184.927246,47.8334961 C185.192546,47.7342122 185.428548,47.5649414 185.635254,47.3256836 C185.84196,47.0864258 186.059245,46.7373047 186.287109,46.2783203 L186.287109,46.2783203 L188.157227,42.4892578 L188.469727,42.4892578 C188.547852,42.4892578 188.608073,42.476237 188.650391,42.4501953 C188.692708,42.4241536 188.724447,42.3753255 188.745605,42.3037109 C188.766764,42.2320964 188.777344,42.1279297 188.777344,41.9912109 C188.777344,41.8544922 188.766764,41.7503255 188.745605,41.6787109 C188.724447,41.6070964 188.692708,41.5574544 188.650391,41.5297852 C188.608073,41.5021159 188.547852,41.4882813 188.469727,41.4882813 L188.469727,41.4882813 L186.594727,41.4882813 C186.516602,41.4882813 186.45638,41.5021159 186.414062,41.5297852 C186.371745,41.5574544 186.340007,41.6070964 186.318848,41.6787109 C186.297689,41.7503255 186.287109,41.8544922 186.287109,41.9912109 C186.287109,42.1279297 186.297689,42.2320964 186.318848,42.3037109 C186.340007,42.3753255 186.371745,42.4241536 186.414062,42.4501953 C186.45638,42.476237 186.516602,42.4892578 186.594727,42.4892578 L186.594727,42.4892578 L186.858398,42.4892578 L186.008789,44.3447266 L185.15918,42.4892578 L185.452148,42.4892578 C185.530273,42.4892578 185.590495,42.476237 185.632812,42.4501953 C185.67513,42.4241536 185.706868,42.3753255 185.728027,42.3037109 C185.749186,42.2320964 185.759766,42.1279297 185.759766,41.9912109 C185.759766,41.8544922 185.749186,41.7503255 185.728027,41.6787109 C185.706868,41.6070964 185.67513,41.5574544 185.632812,41.5297852 C185.590495,41.5021159 185.530273,41.4882813 185.452148,41.4882813 L185.452148,41.4882813 L183.479492,41.4882813 C183.401367,41.4882813 183.341146,41.5021159 183.298828,41.5297852 C183.25651,41.5574544 183.224772,41.6070964 183.203613,41.6787109 C183.182454,41.7503255 183.171875,41.8544922 183.171875,41.9912109 C183.171875,42.1279297 183.182454,42.2320964 183.203613,42.3037109 C183.224772,42.3753255 183.25651,42.4241536 183.298828,42.4501953 C183.341146,42.476237 183.401367,42.4892578 183.479492,42.4892578 L183.479492,42.4892578 L183.845703,42.4892578 L185.339844,45.5605469 C185.154297,45.9186198 184.995605,46.1863607 184.86377,46.3637695 C184.731934,46.5411784 184.585449,46.6705729 184.424316,46.7519531 C184.263184,46.8333333 184.054036,46.8821615 183.796875,46.8984375 C183.715495,46.9049479 183.652832,46.9440104 183.608887,47.015625 C183.564941,47.0872396 183.542969,47.2060547 183.542969,47.3720703 C183.542969,47.6129557 183.573079,47.7789714 183.633301,47.8701172 C183.693522,47.961263 183.782227,48.0052083 183.899414,48.0019531 Z M193.831055,43.7050781 C193.90918,43.7050781 193.969401,43.6912435 194.011719,43.6635742 C194.054036,43.6359049 194.085775,43.5830078 194.106934,43.5048828 C194.128092,43.4267578 194.138672,43.3111979 194.138672,43.1582031 C194.138672,43.0052083 194.128092,42.8896484 194.106934,42.8115234 C194.085775,42.7333984 194.054036,42.6796875 194.011719,42.6503906 C193.969401,42.6210938 193.90918,42.6064453 193.831055,42.6064453 L193.831055,42.6064453 L190.110352,42.6064453 C190.032227,42.6064453 189.972005,42.6210938 189.929688,42.6503906 C189.88737,42.6796875 189.855632,42.7333984 189.834473,42.8115234 C189.813314,42.8896484 189.802734,43.0052083 189.802734,43.1582031 C189.802734,43.3111979 189.813314,43.4267578 189.834473,43.5048828 C189.855632,43.5830078 189.88737,43.6359049 189.929688,43.6635742 C189.972005,43.6912435 190.032227,43.7050781 190.110352,43.7050781 L190.110352,43.7050781 L193.831055,43.7050781 Z M198.064453,46.1074219 C198.39974,46.1074219 198.734212,46.0602214 199.067871,45.9658203 C199.40153,45.8714193 199.719727,45.7395833 200.022461,45.5703125 C200.162435,45.4921875 200.232422,45.3798828 200.232422,45.2333984 C200.232422,45.1357422 200.203125,45.0169271 200.144531,44.8769531 C200.033854,44.6197917 199.905273,44.4912109 199.758789,44.4912109 C199.709961,44.4912109 199.65625,44.507487 199.597656,44.5400391 C199.35026,44.6832682 199.09554,44.7955729 198.833496,44.8769531 C198.571452,44.9583333 198.315104,44.9990234 198.064453,44.9990234 C197.830078,44.9990234 197.625,44.9477539 197.449219,44.8452148 C197.273438,44.7426758 197.137533,44.5961914 197.041504,44.4057617 C196.945475,44.215332 196.897461,43.9947917 196.897461,43.7441406 C196.897461,43.4934896 196.945475,43.2729492 197.041504,43.0825195 C197.137533,42.8920898 197.273438,42.7456055 197.449219,42.6430664 C197.625,42.5405273 197.830078,42.4892578 198.064453,42.4892578 C198.25,42.4892578 198.408691,42.5242513 198.540527,42.5942383 C198.672363,42.6642253 198.771647,42.7578125 198.838379,42.875 C198.905111,42.9921875 198.938477,43.1191406 198.938477,43.2558594 C198.938477,43.3339844 198.954753,43.3942057 198.987305,43.4365234 C199.019857,43.4788411 199.077637,43.5105794 199.160645,43.5317383 C199.243652,43.5528971 199.361654,43.5634766 199.514648,43.5634766 C199.745768,43.5634766 199.91097,43.5398763 200.010254,43.4926758 C200.109538,43.4454753 200.15918,43.3665365 200.15918,43.2558594 L200.15918,43.2558594 L200.15918,41.6884766 C200.15918,41.5745443 200.121745,41.4947917 200.046875,41.4492188 C199.972005,41.4036458 199.833659,41.3808594 199.631836,41.3808594 C199.423503,41.3808594 199.272135,41.4044596 199.177734,41.4516602 C199.083333,41.4988607 199.036133,41.5777995 199.036133,41.6884766 L199.036133,41.6884766 L199.036133,41.9521484 C198.818034,41.5712891 198.445312,41.3808594 197.917969,41.3808594 C197.481771,41.3808594 197.087077,41.480957 196.733887,41.6811523 C196.380697,41.8813477 196.101562,42.1612956 195.896484,42.5209961 C195.691406,42.8806966 195.588867,43.2884115 195.588867,43.7441406 C195.588867,44.1998698 195.690592,44.6067708 195.894043,44.9648438 C196.097493,45.3229167 196.386393,45.6028646 196.760742,45.8046875 C197.135091,46.0065104 197.569661,46.1074219 198.064453,46.1074219 Z M203.962891,46.1074219 C204.457682,46.1074219 204.890625,46.0065104 205.261719,45.8046875 C205.632812,45.6028646 205.918457,45.3229167 206.118652,44.9648438 C206.318848,44.6067708 206.418945,44.1998698 206.418945,43.7441406 C206.418945,43.2884115 206.318848,42.8815104 206.118652,42.5234375 C205.918457,42.1653646 205.632812,41.8854167 205.261719,41.6835938 C204.890625,41.4817708 204.457682,41.3808594 203.962891,41.3808594 C203.468099,41.3808594 203.035156,41.4817708 202.664062,41.6835938 C202.292969,41.8854167 202.007324,42.1653646 201.807129,42.5234375 C201.606934,42.8815104 201.506836,43.2884115 201.506836,43.7441406 C201.506836,44.1998698 201.606934,44.6067708 201.807129,44.9648438 C202.007324,45.3229167 202.292969,45.6028646 202.664062,45.8046875 C203.035156,46.0065104 203.468099,46.1074219 203.962891,46.1074219 Z M203.962891,44.9990234 C203.728516,44.9990234 203.525065,44.9477539 203.352539,44.8452148 C203.180013,44.7426758 203.047363,44.5970052 202.95459,44.4082031 C202.861816,44.219401 202.81543,43.9980469 202.81543,43.7441406 C202.81543,43.4902344 202.861816,43.2688802 202.95459,43.0800781 C203.047363,42.891276 203.180013,42.7456055 203.352539,42.6430664 C203.525065,42.5405273 203.728516,42.4892578 203.962891,42.4892578 C204.197266,42.4892578 204.400716,42.5405273 204.573242,42.6430664 C204.745768,42.7456055 204.878418,42.891276 204.971191,43.0800781 C205.063965,43.2688802 205.110352,43.4902344 205.110352,43.7441406 C205.110352,43.9980469 205.063965,44.219401 204.971191,44.4082031 C204.878418,44.5970052 204.745768,44.7426758 204.573242,44.8452148 C204.400716,44.9477539 204.197266,44.9990234 203.962891,44.9990234 Z M209.470703,46 C209.548828,46 209.609049,45.9869792 209.651367,45.9609375 C209.693685,45.9348958 209.725423,45.8860677 209.746582,45.8144531 C209.767741,45.7428385 209.77832,45.6386719 209.77832,45.5019531 C209.77832,45.3652344 209.767741,45.2610677 209.746582,45.1894531 C209.725423,45.1178385 209.693685,45.0681966 209.651367,45.0405273 C209.609049,45.0128581 209.548828,44.9990234 209.470703,44.9990234 L209.470703,44.9990234 L209.241211,44.9990234 L209.241211,44.203125 C209.241211,43.9036458 209.29248,43.6220703 209.39502,43.3583984 C209.497559,43.0947266 209.633464,42.8839518 209.802734,42.7260742 C209.972005,42.5681966 210.151042,42.4892578 210.339844,42.4892578 C210.544922,42.4892578 210.691406,42.554362 210.779297,42.6845703 C210.867188,42.8147786 210.911133,43.0068359 210.911133,43.2607422 L210.911133,43.2607422 L210.911133,44.9990234 L210.681641,44.9990234 C210.603516,44.9990234 210.543294,45.0128581 210.500977,45.0405273 C210.458659,45.0681966 210.426921,45.1178385 210.405762,45.1894531 C210.384603,45.2610677 210.374023,45.3652344 210.374023,45.5019531 C210.374023,45.6386719 210.384603,45.7428385 210.405762,45.8144531 C210.426921,45.8860677 210.458659,45.9348958 210.500977,45.9609375 C210.543294,45.9869792 210.603516,46 210.681641,46 L210.681641,46 L212.507812,46 C212.585938,46 212.646159,45.9869792 212.688477,45.9609375 C212.730794,45.9348958 212.762533,45.8860677 212.783691,45.8144531 C212.80485,45.7428385 212.81543,45.6386719 212.81543,45.5019531 C212.81543,45.3652344 212.80485,45.2610677 212.783691,45.1894531 C212.762533,45.1178385 212.730794,45.0681966 212.688477,45.0405273 C212.646159,45.0128581 212.585938,44.9990234 212.507812,44.9990234 L212.507812,44.9990234 L212.131836,44.9990234 L212.131836,42.9726563 C212.131836,42.6503906 212.071615,42.3696289 211.951172,42.1303711 C211.830729,41.8911133 211.659017,41.7063802 211.436035,41.5761719 C211.213053,41.4459635 210.953451,41.3808594 210.657227,41.3808594 C210.012695,41.3808594 209.475586,41.7552083 209.045898,42.5039063 L209.045898,42.5039063 L209.045898,41.7958984 C209.045898,41.6852214 209.022298,41.6062826 208.975098,41.559082 C208.927897,41.5118815 208.848958,41.4882813 208.738281,41.4882813 L208.738281,41.4882813 L207.546875,41.4882813 C207.46875,41.4882813 207.408529,41.5021159 207.366211,41.5297852 C207.323893,41.5574544 207.292155,41.6070964 207.270996,41.6787109 C207.249837,41.7503255 207.239258,41.8544922 207.239258,41.9912109 C207.239258,42.1279297 207.249837,42.2320964 207.270996,42.3037109 C207.292155,42.3753255 207.323893,42.4241536 207.366211,42.4501953 C207.408529,42.476237 207.46875,42.4892578 207.546875,42.4892578 L207.546875,42.4892578 L208.020508,42.4892578 L208.020508,44.9990234 L207.644531,44.9990234 C207.566406,44.9990234 207.506185,45.0128581 207.463867,45.0405273 C207.421549,45.0681966 207.389811,45.1178385 207.368652,45.1894531 C207.347493,45.2610677 207.336914,45.3652344 207.336914,45.5019531 C207.336914,45.6386719 207.347493,45.7428385 207.368652,45.8144531 C207.389811,45.8860677 207.421549,45.9348958 207.463867,45.9609375 C207.506185,45.9869792 207.566406,46 207.644531,46 L207.644531,46 L209.470703,46 Z M216.423828,46.1074219 C216.915365,46.1074219 217.496419,45.938151 218.166992,45.5996094 C218.235352,45.5638021 218.286621,45.5222982 218.320801,45.4750977 C218.35498,45.4278971 218.37207,45.3684896 218.37207,45.296875 C218.37207,45.2057292 218.342773,45.0869141 218.28418,44.9404297 C218.232096,44.8102214 218.176758,44.7166341 218.118164,44.659668 C218.05957,44.6027018 217.996094,44.5742188 217.927734,44.5742188 C217.885417,44.5742188 217.828451,44.5888672 217.756836,44.6181641 C217.489909,44.7386068 217.256348,44.832194 217.056152,44.8989258 C216.855957,44.9656576 216.68099,44.9990234 216.53125,44.9990234 C216.111328,44.9990234 215.901367,44.7288411 215.901367,44.1884766 L215.901367,44.1884766 L215.901367,42.8310547 L217.712891,42.8310547 C217.826823,42.8310547 217.906576,42.7944336 217.952148,42.7211914 C217.997721,42.6479492 218.020508,42.5104167 218.020508,42.3085938 C218.020508,42.1067708 217.997721,41.9684245 217.952148,41.8935547 C217.906576,41.8186849 217.826823,41.78125 217.712891,41.78125 L217.712891,41.78125 L215.901367,41.78125 L215.901367,40.4042969 C215.901367,40.3261719 215.885091,40.2659505 215.852539,40.2236328 C215.819987,40.1813151 215.762207,40.1495768 215.679199,40.128418 C215.596191,40.1072591 215.47819,40.0966797 215.325195,40.0966797 C215.094076,40.0966797 214.928874,40.1202799 214.82959,40.1674805 C214.730306,40.214681 214.680664,40.2936198 214.680664,40.4042969 L214.680664,40.4042969 L214.680664,41.78125 L213.738281,41.78125 C213.624349,41.78125 213.544596,41.8186849 213.499023,41.8935547 C213.453451,41.9684245 213.430664,42.1067708 213.430664,42.3085938 C213.430664,42.5104167 213.453451,42.6479492 213.499023,42.7211914 C213.544596,42.7944336 213.624349,42.8310547 213.738281,42.8310547 L213.738281,42.8310547 L214.680664,42.8310547 L214.680664,44.2519531 C214.680664,44.8574219 214.82959,45.3180339 215.127441,45.6337891 C215.425293,45.9495443 215.857422,46.1074219 216.423828,46.1074219 Z M221.970703,46.1074219 C222.296224,46.1074219 222.628255,46.0764974 222.966797,46.0146484 C223.305339,45.9527995 223.63737,45.8681641 223.962891,45.7607422 C224.047526,45.7314453 224.108561,45.6931966 224.145996,45.6459961 C224.183431,45.5987956 224.202148,45.5328776 224.202148,45.4482422 C224.202148,45.3636068 224.185872,45.2610677 224.15332,45.140625 C224.111003,44.984375 224.063802,44.8736979 224.011719,44.8085938 C223.959635,44.7434896 223.897786,44.7109375 223.826172,44.7109375 C223.787109,44.7109375 223.748047,44.7174479 223.708984,44.7304688 C223.119792,44.9095052 222.572917,44.9990234 222.068359,44.9990234 C221.755859,44.9990234 221.497884,44.9298503 221.294434,44.7915039 C221.090983,44.6531576 220.958333,44.453776 220.896484,44.1933594 L220.896484,44.1933594 L224.03125,44.1933594 C224.141927,44.1933594 224.220866,44.1705729 224.268066,44.125 C224.315267,44.0794271 224.338867,44.0013021 224.338867,43.890625 C224.338867,43.4023438 224.250163,42.9685872 224.072754,42.5893555 C223.895345,42.2101237 223.632487,41.9138997 223.28418,41.7006836 C222.935872,41.4874674 222.514323,41.3808594 222.019531,41.3808594 C221.527995,41.3808594 221.098307,41.4817708 220.730469,41.6835938 C220.36263,41.8854167 220.081055,42.1653646 219.885742,42.5234375 C219.69043,42.8815104 219.592773,43.2884115 219.592773,43.7441406 C219.592773,44.203125 219.686361,44.6108398 219.873535,44.9672852 C220.06071,45.3237305 220.333333,45.6028646 220.691406,45.8046875 C221.049479,46.0065104 221.475911,46.1074219 221.970703,46.1074219 Z M223.064453,43.2412109 L220.916016,43.2412109 C221.05599,42.7399089 221.423828,42.4892578 222.019531,42.4892578 C222.299479,42.4892578 222.529785,42.5551758 222.710449,42.6870117 C222.891113,42.8188477 223.009115,43.0035807 223.064453,43.2412109 L223.064453,43.2412109 Z M227.458984,46 C227.537109,46 227.597331,45.9869792 227.639648,45.9609375 C227.681966,45.9348958 227.713704,45.8860677 227.734863,45.8144531 C227.756022,45.7428385 227.766602,45.6386719 227.766602,45.5019531 C227.766602,45.3652344 227.756022,45.2610677 227.734863,45.1894531 C227.713704,45.1178385 227.681966,45.0681966 227.639648,45.0405273 C227.597331,45.0128581 227.537109,44.9990234 227.458984,44.9990234 L227.458984,44.9990234 L227.229492,44.9990234 L227.229492,44.203125 C227.229492,43.9036458 227.280762,43.6220703 227.383301,43.3583984 C227.48584,43.0947266 227.621745,42.8839518 227.791016,42.7260742 C227.960286,42.5681966 228.139323,42.4892578 228.328125,42.4892578 C228.533203,42.4892578 228.679688,42.554362 228.767578,42.6845703 C228.855469,42.8147786 228.899414,43.0068359 228.899414,43.2607422 L228.899414,43.2607422 L228.899414,44.9990234 L228.669922,44.9990234 C228.591797,44.9990234 228.531576,45.0128581 228.489258,45.0405273 C228.44694,45.0681966 228.415202,45.1178385 228.394043,45.1894531 C228.372884,45.2610677 228.362305,45.3652344 228.362305,45.5019531 C228.362305,45.6386719 228.372884,45.7428385 228.394043,45.8144531 C228.415202,45.8860677 228.44694,45.9348958 228.489258,45.9609375 C228.531576,45.9869792 228.591797,46 228.669922,46 L228.669922,46 L230.496094,46 C230.574219,46 230.63444,45.9869792 230.676758,45.9609375 C230.719076,45.9348958 230.750814,45.8860677 230.771973,45.8144531 C230.793132,45.7428385 230.803711,45.6386719 230.803711,45.5019531 C230.803711,45.3652344 230.793132,45.2610677 230.771973,45.1894531 C230.750814,45.1178385 230.719076,45.0681966 230.676758,45.0405273 C230.63444,45.0128581 230.574219,44.9990234 230.496094,44.9990234 L230.496094,44.9990234 L230.120117,44.9990234 L230.120117,42.9726563 C230.120117,42.6503906 230.059896,42.3696289 229.939453,42.1303711 C229.81901,41.8911133 229.647298,41.7063802 229.424316,41.5761719 C229.201335,41.4459635 228.941732,41.3808594 228.645508,41.3808594 C228.000977,41.3808594 227.463867,41.7552083 227.03418,42.5039063 L227.03418,42.5039063 L227.03418,41.7958984 C227.03418,41.6852214 227.010579,41.6062826 226.963379,41.559082 C226.916178,41.5118815 226.83724,41.4882813 226.726562,41.4882813 L226.726562,41.4882813 L225.535156,41.4882813 C225.457031,41.4882813 225.39681,41.5021159 225.354492,41.5297852 C225.312174,41.5574544 225.280436,41.6070964 225.259277,41.6787109 C225.238118,41.7503255 225.227539,41.8544922 225.227539,41.9912109 C225.227539,42.1279297 225.238118,42.2320964 225.259277,42.3037109 C225.280436,42.3753255 225.312174,42.4241536 225.354492,42.4501953 C225.39681,42.476237 225.457031,42.4892578 225.535156,42.4892578 L225.535156,42.4892578 L226.008789,42.4892578 L226.008789,44.9990234 L225.632812,44.9990234 C225.554688,44.9990234 225.494466,45.0128581 225.452148,45.0405273 C225.409831,45.0681966 225.378092,45.1178385 225.356934,45.1894531 C225.335775,45.2610677 225.325195,45.3652344 225.325195,45.5019531 C225.325195,45.6386719 225.335775,45.7428385 225.356934,45.8144531 C225.378092,45.8860677 225.409831,45.9348958 225.452148,45.9609375 C225.494466,45.9869792 225.554688,46 225.632812,46 L225.632812,46 L227.458984,46 Z M234.412109,46.1074219 C234.903646,46.1074219 235.484701,45.938151 236.155273,45.5996094 C236.223633,45.5638021 236.274902,45.5222982 236.309082,45.4750977 C236.343262,45.4278971 236.360352,45.3684896 236.360352,45.296875 C236.360352,45.2057292 236.331055,45.0869141 236.272461,44.9404297 C236.220378,44.8102214 236.165039,44.7166341 236.106445,44.659668 C236.047852,44.6027018 235.984375,44.5742188 235.916016,44.5742188 C235.873698,44.5742188 235.816732,44.5888672 235.745117,44.6181641 C235.47819,44.7386068 235.244629,44.832194 235.044434,44.8989258 C234.844238,44.9656576 234.669271,44.9990234 234.519531,44.9990234 C234.099609,44.9990234 233.889648,44.7288411 233.889648,44.1884766 L233.889648,44.1884766 L233.889648,42.8310547 L235.701172,42.8310547 C235.815104,42.8310547 235.894857,42.7944336 235.94043,42.7211914 C235.986003,42.6479492 236.008789,42.5104167 236.008789,42.3085938 C236.008789,42.1067708 235.986003,41.9684245 235.94043,41.8935547 C235.894857,41.8186849 235.815104,41.78125 235.701172,41.78125 L235.701172,41.78125 L233.889648,41.78125 L233.889648,40.4042969 C233.889648,40.3261719 233.873372,40.2659505 233.84082,40.2236328 C233.808268,40.1813151 233.750488,40.1495768 233.66748,40.128418 C233.584473,40.1072591 233.466471,40.0966797 233.313477,40.0966797 C233.082357,40.0966797 232.917155,40.1202799 232.817871,40.1674805 C232.718587,40.214681 232.668945,40.2936198 232.668945,40.4042969 L232.668945,40.4042969 L232.668945,41.78125 L231.726562,41.78125 C231.61263,41.78125 231.532878,41.8186849 231.487305,41.8935547 C231.441732,41.9684245 231.418945,42.1067708 231.418945,42.3085938 C231.418945,42.5104167 231.441732,42.6479492 231.487305,42.7211914 C231.532878,42.7944336 231.61263,42.8310547 231.726562,42.8310547 L231.726562,42.8310547 L232.668945,42.8310547 L232.668945,44.2519531 C232.668945,44.8574219 232.817871,45.3180339 233.115723,45.6337891 C233.413574,45.9495443 233.845703,46.1074219 234.412109,46.1074219 Z M239.939453,43.0996094 C240.222656,43.0996094 240.427734,43.0760091 240.554688,43.0288086 C240.681641,42.9816081 240.745117,42.9026693 240.745117,42.7919922 L240.745117,42.7919922 L240.745117,41.7470703 C240.745117,41.6363932 240.681641,41.5574544 240.554688,41.5102539 C240.427734,41.4630534 240.222656,41.4394531 239.939453,41.4394531 C239.65625,41.4394531 239.451172,41.4630534 239.324219,41.5102539 C239.197266,41.5574544 239.133789,41.6363932 239.133789,41.7470703 L239.133789,41.7470703 L239.133789,42.7919922 C239.133789,42.9026693 239.197266,42.9816081 239.324219,43.0288086 C239.451172,43.0760091 239.65625,43.0996094 239.939453,43.0996094 Z M239.939453,46.0488281 C240.222656,46.0488281 240.427734,46.0252279 240.554688,45.9780273 C240.681641,45.9308268 240.745117,45.851888 240.745117,45.7412109 L240.745117,45.7412109 L240.745117,44.6962891 C240.745117,44.585612 240.681641,44.5066732 240.554688,44.4594727 C240.427734,44.4122721 240.222656,44.3886719 239.939453,44.3886719 C239.65625,44.3886719 239.451172,44.4122721 239.324219,44.4594727 C239.197266,44.5066732 239.133789,44.585612 239.133789,44.6962891 L239.133789,44.6962891 L239.133789,45.7412109 C239.133789,45.851888 239.197266,45.9308268 239.324219,45.9780273 C239.451172,46.0252279 239.65625,46.0488281 239.939453,46.0488281 Z M252.214844,46.1074219 C252.625,46.1074219 252.975749,46.0463867 253.26709,45.9243164 C253.558431,45.8022461 253.779785,45.6280924 253.931152,45.4018555 C254.08252,45.1756185 254.158203,44.9078776 254.158203,44.5986328 C254.158203,44.2828776 254.084961,44.0289714 253.938477,43.8369141 C253.791992,43.6448568 253.588542,43.4951172 253.328125,43.3876953 C253.149089,43.3160807 252.959473,43.2623698 252.759277,43.2265625 C252.559082,43.1907552 252.307617,43.1549479 252.004883,43.1191406 C251.698893,43.0898438 251.482422,43.0589193 251.355469,43.0263672 C251.114583,42.9677734 250.994141,42.8701172 250.994141,42.7333984 C250.994141,42.6194661 251.048665,42.5283203 251.157715,42.4599609 C251.266764,42.3916016 251.417318,42.3574219 251.609375,42.3574219 C251.934896,42.3574219 252.221354,42.4005534 252.46875,42.4868164 C252.716146,42.5730794 252.935872,42.71875 253.12793,42.9238281 C253.193034,42.9921875 253.311849,43.0263672 253.484375,43.0263672 C253.64388,43.0263672 253.758626,43.0027669 253.828613,42.9555664 C253.8986,42.9083659 253.933594,42.8294271 253.933594,42.71875 L253.933594,42.71875 L253.933594,41.6884766 C253.933594,41.5777995 253.889648,41.4988607 253.801758,41.4516602 C253.713867,41.4044596 253.565755,41.3808594 253.357422,41.3808594 C253.152344,41.3808594 253.009928,41.4044596 252.930176,41.4516602 C252.850423,41.4988607 252.810547,41.5777995 252.810547,41.6884766 L252.810547,41.6884766 L252.810547,41.7373047 C252.429688,41.4996745 251.99349,41.3808594 251.501953,41.3808594 C251.166667,41.3808594 250.864746,41.4370117 250.596191,41.5493164 C250.327637,41.6616211 250.116862,41.8235677 249.963867,42.0351563 C249.810872,42.2467448 249.734375,42.4941406 249.734375,42.7773438 C249.734375,43.3111979 249.958984,43.7018229 250.408203,43.9492188 C250.60026,44.0566406 250.81429,44.1355794 251.050293,44.1860352 C251.286296,44.2364909 251.568685,44.28125 251.897461,44.3203125 C252.193685,44.3626302 252.382487,44.3919271 252.463867,44.4082031 C252.607096,44.4407552 252.715332,44.4814453 252.788574,44.5302734 C252.861816,44.5791016 252.898438,44.6442057 252.898438,44.7255859 C252.898438,44.9957682 252.638021,45.1308594 252.117188,45.1308594 C251.814453,45.1308594 251.536133,45.0836589 251.282227,44.9892578 C251.02832,44.8948568 250.819987,44.7451172 250.657227,44.5400391 C250.585612,44.4488932 250.450521,44.4033203 250.251953,44.4033203 C250.092448,44.4033203 249.974447,44.4277344 249.897949,44.4765625 C249.821452,44.5253906 249.783203,44.6035156 249.783203,44.7109375 L249.783203,44.7109375 L249.783203,45.7998047 C249.783203,45.9104818 249.827148,45.9894206 249.915039,46.0366211 C250.00293,46.0838216 250.151042,46.1074219 250.359375,46.1074219 C250.567708,46.1074219 250.719076,46.0838216 250.813477,46.0366211 C250.907878,45.9894206 250.955078,45.9104818 250.955078,45.7998047 L250.955078,45.7998047 L250.955078,45.7607422 C251.342448,45.991862 251.76237,46.1074219 252.214844,46.1074219 Z M257.878906,47.8945313 C257.957031,47.8945313 258.017253,47.8806966 258.05957,47.8530273 C258.101888,47.8253581 258.133626,47.7757161 258.154785,47.7041016 C258.175944,47.632487 258.186523,47.5283203 258.186523,47.3916016 C258.186523,47.2548828 258.175944,47.1507161 258.154785,47.0791016 C258.133626,47.007487 258.101888,46.9586589 258.05957,46.9326172 C258.017253,46.9065755 257.957031,46.8935547 257.878906,46.8935547 L257.878906,46.8935547 L257.063477,46.8935547 L257.063477,45.53125 C257.229492,45.7167969 257.421549,45.8592122 257.639648,45.9584961 C257.857747,46.0577799 258.09375,46.1074219 258.347656,46.1074219 C258.774089,46.1074219 259.14681,46.0032552 259.46582,45.7949219 C259.784831,45.5865885 260.028971,45.3033854 260.198242,44.9453125 C260.367513,44.5872396 260.452148,44.186849 260.452148,43.7441406 C260.452148,43.3014323 260.367513,42.9010417 260.198242,42.5429688 C260.028971,42.1848958 259.784831,41.9016927 259.46582,41.6933594 C259.14681,41.485026 258.774089,41.3808594 258.347656,41.3808594 C258.038411,41.3808594 257.756836,41.4532878 257.50293,41.5981445 C257.249023,41.7430013 257.037435,41.945638 256.868164,42.2060547 L256.868164,42.2060547 L256.868164,41.7958984 C256.868164,41.6852214 256.844564,41.6062826 256.797363,41.559082 C256.750163,41.5118815 256.671224,41.4882813 256.560547,41.4882813 L256.560547,41.4882813 L255.417969,41.4882813 C255.339844,41.4882813 255.279622,41.5021159 255.237305,41.5297852 C255.194987,41.5574544 255.163249,41.6070964 255.14209,41.6787109 C255.120931,41.7503255 255.110352,41.8544922 255.110352,41.9912109 C255.110352,42.1279297 255.120931,42.2320964 255.14209,42.3037109 C255.163249,42.3753255 255.194987,42.4241536 255.237305,42.4501953 C255.279622,42.476237 255.339844,42.4892578 255.417969,42.4892578 L255.417969,42.4892578 L255.842773,42.4892578 L255.842773,46.8935547 L255.417969,46.8935547 C255.339844,46.8935547 255.279622,46.9073893 255.237305,46.9350586 C255.194987,46.9627279 255.163249,47.0123698 255.14209,47.0839844 C255.120931,47.155599 255.110352,47.2597656 255.110352,47.3964844 C255.110352,47.5332031 255.120931,47.6373698 255.14209,47.7089844 C255.163249,47.780599 255.194987,47.8294271 255.237305,47.8554688 C255.279622,47.8815104 255.339844,47.8945313 255.417969,47.8945313 L255.417969,47.8945313 L257.878906,47.8945313 Z M258.152344,44.9990234 C257.94401,44.9990234 257.755208,44.9501953 257.585938,44.8525391 C257.416667,44.7548828 257.281576,44.6108398 257.180664,44.4204102 C257.079753,44.2299805 257.029297,44.0045573 257.029297,43.7441406 C257.029297,43.483724 257.079753,43.2583008 257.180664,43.0678711 C257.281576,42.8774414 257.416667,42.7333984 257.585938,42.6357422 C257.755208,42.5380859 257.94401,42.4892578 258.152344,42.4892578 C258.354167,42.4892578 258.529948,42.5405273 258.679688,42.6430664 C258.829427,42.7456055 258.944173,42.891276 259.023926,43.0800781 C259.103678,43.2688802 259.143555,43.4902344 259.143555,43.7441406 C259.143555,43.9980469 259.103678,44.219401 259.023926,44.4082031 C258.944173,44.5970052 258.829427,44.7426758 258.679688,44.8452148 C258.529948,44.9477539 258.354167,44.9990234 258.152344,44.9990234 Z M263.240234,46.1074219 C263.542969,46.1074219 263.837565,46.0528971 264.124023,45.9438477 C264.410482,45.8347982 264.682292,45.6809896 264.939453,45.4824219 C265.020833,45.6614583 265.138835,45.7924805 265.293457,45.8754883 C265.448079,45.9584961 265.626302,46 265.828125,46 L265.828125,46 L266.375,46 C266.453125,46 266.513346,45.9869792 266.555664,45.9609375 C266.597982,45.9348958 266.62972,45.8860677 266.650879,45.8144531 C266.672038,45.7428385 266.682617,45.6386719 266.682617,45.5019531 C266.682617,45.3652344 266.672038,45.2610677 266.650879,45.1894531 C266.62972,45.1178385 266.597982,45.0681966 266.555664,45.0405273 C266.513346,45.0128581 266.453125,44.9990234 266.375,44.9990234 L266.375,44.9990234 L266.223633,44.9990234 C266.119466,44.9990234 266.039714,44.9624023 265.984375,44.8891602 C265.929036,44.815918 265.901367,44.7141927 265.901367,44.5839844 L265.901367,44.5839844 L265.901367,43.1728516 C265.901367,42.5966797 265.741862,42.1539714 265.422852,41.8447266 C265.103841,41.5354818 264.586263,41.3808594 263.870117,41.3808594 C263.583659,41.3808594 263.277669,41.406901 262.952148,41.4589844 C262.626628,41.5110677 262.31901,41.5891927 262.029297,41.6933594 C261.879557,41.7486979 261.804688,41.859375 261.804688,42.0253906 C261.804688,42.1165365 261.829102,42.233724 261.87793,42.3769531 C261.930013,42.5201823 261.987793,42.6219076 262.05127,42.6821289 C262.114746,42.7423503 262.187174,42.7724609 262.268555,42.7724609 C262.307617,42.7724609 262.354818,42.7643229 262.410156,42.7480469 C262.641276,42.6699219 262.874837,42.6072591 263.11084,42.5600586 C263.346842,42.5128581 263.560872,42.4892578 263.75293,42.4892578 C264.097982,42.4892578 264.338867,42.5413411 264.475586,42.6455078 C264.612305,42.7496745 264.680664,42.9108073 264.680664,43.1289063 L264.680664,43.1289063 L264.680664,43.2705078 C264.192383,43.1728516 263.731771,43.1240234 263.298828,43.1240234 C262.719401,43.1240234 262.268555,43.249349 261.946289,43.5 C261.624023,43.750651 261.462891,44.1038411 261.462891,44.5595703 C261.462891,44.8753255 261.533691,45.1495768 261.675293,45.3823242 C261.816895,45.6150716 262.021159,45.7941081 262.288086,45.9194336 C262.555013,46.0447591 262.872396,46.1074219 263.240234,46.1074219 Z M263.396484,45.0771484 C263.178385,45.0771484 263.011556,45.0372721 262.895996,44.9575195 C262.780436,44.8777669 262.722656,44.7613932 262.722656,44.6083984 C262.722656,44.4521484 262.782064,44.3333333 262.900879,44.2519531 C263.019694,44.1705729 263.193034,44.1298828 263.420898,44.1298828 C263.831055,44.1298828 264.250977,44.1738281 264.680664,44.2617188 L264.680664,44.2617188 L264.680664,44.5742188 C264.488607,44.7304688 264.282715,44.8533529 264.062988,44.9428711 C263.843262,45.0323893 263.621094,45.0771484 263.396484,45.0771484 Z M270.017578,46.1074219 C270.352865,46.1074219 270.687337,46.0602214 271.020996,45.9658203 C271.354655,45.8714193 271.672852,45.7395833 271.975586,45.5703125 C272.11556,45.4921875 272.185547,45.3798828 272.185547,45.2333984 C272.185547,45.1357422 272.15625,45.0169271 272.097656,44.8769531 C271.986979,44.6197917 271.858398,44.4912109 271.711914,44.4912109 C271.663086,44.4912109 271.609375,44.507487 271.550781,44.5400391 C271.303385,44.6832682 271.048665,44.7955729 270.786621,44.8769531 C270.524577,44.9583333 270.268229,44.9990234 270.017578,44.9990234 C269.783203,44.9990234 269.578125,44.9477539 269.402344,44.8452148 C269.226562,44.7426758 269.090658,44.5961914 268.994629,44.4057617 C268.8986,44.215332 268.850586,43.9947917 268.850586,43.7441406 C268.850586,43.4934896 268.8986,43.2729492 268.994629,43.0825195 C269.090658,42.8920898 269.226562,42.7456055 269.402344,42.6430664 C269.578125,42.5405273 269.783203,42.4892578 270.017578,42.4892578 C270.203125,42.4892578 270.361816,42.5242513 270.493652,42.5942383 C270.625488,42.6642253 270.724772,42.7578125 270.791504,42.875 C270.858236,42.9921875 270.891602,43.1191406 270.891602,43.2558594 C270.891602,43.3339844 270.907878,43.3942057 270.94043,43.4365234 C270.972982,43.4788411 271.030762,43.5105794 271.11377,43.5317383 C271.196777,43.5528971 271.314779,43.5634766 271.467773,43.5634766 C271.698893,43.5634766 271.864095,43.5398763 271.963379,43.4926758 C272.062663,43.4454753 272.112305,43.3665365 272.112305,43.2558594 L272.112305,43.2558594 L272.112305,41.6884766 C272.112305,41.5745443 272.07487,41.4947917 272,41.4492188 C271.92513,41.4036458 271.786784,41.3808594 271.584961,41.3808594 C271.376628,41.3808594 271.22526,41.4044596 271.130859,41.4516602 C271.036458,41.4988607 270.989258,41.5777995 270.989258,41.6884766 L270.989258,41.6884766 L270.989258,41.9521484 C270.771159,41.5712891 270.398438,41.3808594 269.871094,41.3808594 C269.434896,41.3808594 269.040202,41.480957 268.687012,41.6811523 C268.333822,41.8813477 268.054688,42.1612956 267.849609,42.5209961 C267.644531,42.8806966 267.541992,43.2884115 267.541992,43.7441406 C267.541992,44.1998698 267.643717,44.6067708 267.847168,44.9648438 C268.050618,45.3229167 268.339518,45.6028646 268.713867,45.8046875 C269.088216,46.0065104 269.522786,46.1074219 270.017578,46.1074219 Z M275.935547,46.1074219 C276.261068,46.1074219 276.593099,46.0764974 276.931641,46.0146484 C277.270182,45.9527995 277.602214,45.8681641 277.927734,45.7607422 C278.01237,45.7314453 278.073405,45.6931966 278.11084,45.6459961 C278.148275,45.5987956 278.166992,45.5328776 278.166992,45.4482422 C278.166992,45.3636068 278.150716,45.2610677 278.118164,45.140625 C278.075846,44.984375 278.028646,44.8736979 277.976562,44.8085938 C277.924479,44.7434896 277.86263,44.7109375 277.791016,44.7109375 C277.751953,44.7109375 277.712891,44.7174479 277.673828,44.7304688 C277.084635,44.9095052 276.53776,44.9990234 276.033203,44.9990234 C275.720703,44.9990234 275.462728,44.9298503 275.259277,44.7915039 C275.055827,44.6531576 274.923177,44.453776 274.861328,44.1933594 L274.861328,44.1933594 L277.996094,44.1933594 C278.106771,44.1933594 278.18571,44.1705729 278.23291,44.125 C278.280111,44.0794271 278.303711,44.0013021 278.303711,43.890625 C278.303711,43.4023438 278.215007,42.9685872 278.037598,42.5893555 C277.860189,42.2101237 277.597331,41.9138997 277.249023,41.7006836 C276.900716,41.4874674 276.479167,41.3808594 275.984375,41.3808594 C275.492839,41.3808594 275.063151,41.4817708 274.695312,41.6835938 C274.327474,41.8854167 274.045898,42.1653646 273.850586,42.5234375 C273.655273,42.8815104 273.557617,43.2884115 273.557617,43.7441406 C273.557617,44.203125 273.651204,44.6108398 273.838379,44.9672852 C274.025553,45.3237305 274.298177,45.6028646 274.65625,45.8046875 C275.014323,46.0065104 275.440755,46.1074219 275.935547,46.1074219 Z M277.029297,43.2412109 L274.880859,43.2412109 C275.020833,42.7399089 275.388672,42.4892578 275.984375,42.4892578 C276.264323,42.4892578 276.494629,42.5551758 276.675293,42.6870117 C276.855957,42.8188477 276.973958,43.0035807 277.029297,43.2412109 L277.029297,43.2412109 Z M283.772461,43.7050781 C283.850586,43.7050781 283.910807,43.6912435 283.953125,43.6635742 C283.995443,43.6359049 284.027181,43.5830078 284.04834,43.5048828 C284.069499,43.4267578 284.080078,43.3111979 284.080078,43.1582031 C284.080078,43.0052083 284.069499,42.8896484 284.04834,42.8115234 C284.027181,42.7333984 283.995443,42.6796875 283.953125,42.6503906 C283.910807,42.6210938 283.850586,42.6064453 283.772461,42.6064453 L283.772461,42.6064453 L280.051758,42.6064453 C279.973633,42.6064453 279.913411,42.6210938 279.871094,42.6503906 C279.828776,42.6796875 279.797038,42.7333984 279.775879,42.8115234 C279.75472,42.8896484 279.744141,43.0052083 279.744141,43.1582031 C279.744141,43.3111979 279.75472,43.4267578 279.775879,43.5048828 C279.797038,43.5830078 279.828776,43.6359049 279.871094,43.6635742 C279.913411,43.6912435 279.973633,43.7050781 280.051758,43.7050781 L280.051758,43.7050781 L283.772461,43.7050781 Z M288.328125,46.1074219 C288.754557,46.1074219 289.127279,46.0032552 289.446289,45.7949219 C289.765299,45.5865885 290.00944,45.3033854 290.178711,44.9453125 C290.347982,44.5872396 290.432617,44.186849 290.432617,43.7441406 C290.432617,43.3014323 290.347982,42.9010417 290.178711,42.5429688 C290.00944,42.1848958 289.765299,41.9016927 289.446289,41.6933594 C289.127279,41.485026 288.754557,41.3808594 288.328125,41.3808594 C288.074219,41.3808594 287.838216,41.4305013 287.620117,41.5297852 C287.402018,41.629069 287.209961,41.7714844 287.043945,41.9570313 L287.043945,41.9570313 L287.043945,39.9013672 C287.043945,39.7906901 287.020345,39.7117513 286.973145,39.6645508 C286.925944,39.6173503 286.847005,39.59375 286.736328,39.59375 L286.736328,39.59375 L285.349609,39.59375 C285.271484,39.59375 285.211263,39.6075846 285.168945,39.6352539 C285.126628,39.6629232 285.094889,39.7125651 285.07373,39.7841797 C285.052572,39.8557943 285.041992,39.9599609 285.041992,40.0966797 C285.041992,40.2333984 285.052572,40.3375651 285.07373,40.4091797 C285.094889,40.4807943 285.126628,40.5296224 285.168945,40.5556641 C285.211263,40.5817057 285.271484,40.5947266 285.349609,40.5947266 L285.349609,40.5947266 L285.823242,40.5947266 L285.823242,44.9990234 L285.447266,44.9990234 C285.369141,44.9990234 285.308919,45.0120443 285.266602,45.0380859 C285.224284,45.0641276 285.192546,45.1129557 285.171387,45.1845703 C285.150228,45.2561849 285.139648,45.3603516 285.139648,45.4970703 C285.139648,45.6337891 285.150228,45.7379557 285.171387,45.8095703 C285.192546,45.8811849 285.224284,45.9308268 285.266602,45.9584961 C285.308919,45.9861654 285.369141,46 285.447266,46 L285.447266,46 L286.541016,46 C286.651693,46 286.730632,45.9763997 286.777832,45.9291992 C286.825033,45.8819987 286.848633,45.8030599 286.848633,45.6923828 L286.848633,45.6923828 L286.848633,45.2822266 C287.017904,45.5426432 287.229492,45.7452799 287.483398,45.8901367 C287.737305,46.0349935 288.01888,46.1074219 288.328125,46.1074219 Z M288.132812,44.9990234 C287.924479,44.9990234 287.735677,44.9501953 287.566406,44.8525391 C287.397135,44.7548828 287.262044,44.6108398 287.161133,44.4204102 C287.060221,44.2299805 287.009766,44.0045573 287.009766,43.7441406 C287.009766,43.483724 287.060221,43.2583008 287.161133,43.0678711 C287.262044,42.8774414 287.397135,42.7333984 287.566406,42.6357422 C287.735677,42.5380859 287.924479,42.4892578 288.132812,42.4892578 C288.334635,42.4892578 288.510417,42.5405273 288.660156,42.6430664 C288.809896,42.7456055 288.924642,42.891276 289.004395,43.0800781 C289.084147,43.2688802 289.124023,43.4902344 289.124023,43.7441406 C289.124023,43.9980469 289.084147,44.219401 289.004395,44.4082031 C288.924642,44.5970052 288.809896,44.7426758 288.660156,44.8452148 C288.510417,44.9477539 288.334635,44.9990234 288.132812,44.9990234 Z M293.923828,46.1074219 C294.249349,46.1074219 294.58138,46.0764974 294.919922,46.0146484 C295.258464,45.9527995 295.590495,45.8681641 295.916016,45.7607422 C296.000651,45.7314453 296.061686,45.6931966 296.099121,45.6459961 C296.136556,45.5987956 296.155273,45.5328776 296.155273,45.4482422 C296.155273,45.3636068 296.138997,45.2610677 296.106445,45.140625 C296.064128,44.984375 296.016927,44.8736979 295.964844,44.8085938 C295.91276,44.7434896 295.850911,44.7109375 295.779297,44.7109375 C295.740234,44.7109375 295.701172,44.7174479 295.662109,44.7304688 C295.072917,44.9095052 294.526042,44.9990234 294.021484,44.9990234 C293.708984,44.9990234 293.451009,44.9298503 293.247559,44.7915039 C293.044108,44.6531576 292.911458,44.453776 292.849609,44.1933594 L292.849609,44.1933594 L295.984375,44.1933594 C296.095052,44.1933594 296.173991,44.1705729 296.221191,44.125 C296.268392,44.0794271 296.291992,44.0013021 296.291992,43.890625 C296.291992,43.4023438 296.203288,42.9685872 296.025879,42.5893555 C295.84847,42.2101237 295.585612,41.9138997 295.237305,41.7006836 C294.888997,41.4874674 294.467448,41.3808594 293.972656,41.3808594 C293.48112,41.3808594 293.051432,41.4817708 292.683594,41.6835938 C292.315755,41.8854167 292.03418,42.1653646 291.838867,42.5234375 C291.643555,42.8815104 291.545898,43.2884115 291.545898,43.7441406 C291.545898,44.203125 291.639486,44.6108398 291.82666,44.9672852 C292.013835,45.3237305 292.286458,45.6028646 292.644531,45.8046875 C293.002604,46.0065104 293.429036,46.1074219 293.923828,46.1074219 Z M295.017578,43.2412109 L292.869141,43.2412109 C293.009115,42.7399089 293.376953,42.4892578 293.972656,42.4892578 C294.252604,42.4892578 294.48291,42.5551758 294.663574,42.6870117 C294.844238,42.8188477 294.96224,43.0035807 295.017578,43.2412109 L295.017578,43.2412109 Z M300.369141,46.1074219 C300.860677,46.1074219 301.441732,45.938151 302.112305,45.5996094 C302.180664,45.5638021 302.231934,45.5222982 302.266113,45.4750977 C302.300293,45.4278971 302.317383,45.3684896 302.317383,45.296875 C302.317383,45.2057292 302.288086,45.0869141 302.229492,44.9404297 C302.177409,44.8102214 302.12207,44.7166341 302.063477,44.659668 C302.004883,44.6027018 301.941406,44.5742188 301.873047,44.5742188 C301.830729,44.5742188 301.773763,44.5888672 301.702148,44.6181641 C301.435221,44.7386068 301.20166,44.832194 301.001465,44.8989258 C300.80127,44.9656576 300.626302,44.9990234 300.476562,44.9990234 C300.056641,44.9990234 299.84668,44.7288411 299.84668,44.1884766 L299.84668,44.1884766 L299.84668,42.8310547 L301.658203,42.8310547 C301.772135,42.8310547 301.851888,42.7944336 301.897461,42.7211914 C301.943034,42.6479492 301.96582,42.5104167 301.96582,42.3085938 C301.96582,42.1067708 301.943034,41.9684245 301.897461,41.8935547 C301.851888,41.8186849 301.772135,41.78125 301.658203,41.78125 L301.658203,41.78125 L299.84668,41.78125 L299.84668,40.4042969 C299.84668,40.3261719 299.830404,40.2659505 299.797852,40.2236328 C299.765299,40.1813151 299.70752,40.1495768 299.624512,40.128418 C299.541504,40.1072591 299.423503,40.0966797 299.270508,40.0966797 C299.039388,40.0966797 298.874186,40.1202799 298.774902,40.1674805 C298.675618,40.214681 298.625977,40.2936198 298.625977,40.4042969 L298.625977,40.4042969 L298.625977,41.78125 L297.683594,41.78125 C297.569661,41.78125 297.489909,41.8186849 297.444336,41.8935547 C297.398763,41.9684245 297.375977,42.1067708 297.375977,42.3085938 C297.375977,42.5104167 297.398763,42.6479492 297.444336,42.7211914 C297.489909,42.7944336 297.569661,42.8310547 297.683594,42.8310547 L297.683594,42.8310547 L298.625977,42.8310547 L298.625977,44.2519531 C298.625977,44.8574219 298.774902,45.3180339 299.072754,45.6337891 C299.370605,45.9495443 299.802734,46.1074219 300.369141,46.1074219 Z M307.180664,46.1074219 C307.375977,46.1074219 307.516764,46.0838216 307.603027,46.0366211 C307.68929,45.9894206 307.745443,45.9072266 307.771484,45.7900391 L307.771484,45.7900391 L308.484375,42.4892578 L308.68457,42.4892578 C308.762695,42.4892578 308.822917,42.476237 308.865234,42.4501953 C308.907552,42.4241536 308.93929,42.3753255 308.960449,42.3037109 C308.981608,42.2320964 308.992188,42.1279297 308.992188,41.9912109 C308.992188,41.8544922 308.981608,41.7503255 308.960449,41.6787109 C308.93929,41.6070964 308.907552,41.5574544 308.865234,41.5297852 C308.822917,41.5021159 308.762695,41.4882813 308.68457,41.4882813 L308.68457,41.4882813 L307.053711,41.4882813 C306.975586,41.4882813 306.915365,41.5021159 306.873047,41.5297852 C306.830729,41.5574544 306.798991,41.6070964 306.777832,41.6787109 C306.756673,41.7503255 306.746094,41.8544922 306.746094,41.9912109 C306.746094,42.1279297 306.756673,42.2320964 306.777832,42.3037109 C306.798991,42.3753255 306.830729,42.4241536 306.873047,42.4501953 C306.915365,42.476237 306.975586,42.4892578 307.053711,42.4892578 L307.053711,42.4892578 L307.405273,42.4892578 L307.024414,44.3837891 L306.355469,42.6943359 C306.319661,42.6097005 306.266764,42.5478516 306.196777,42.5087891 C306.12679,42.4697266 306.02181,42.4501953 305.881836,42.4501953 C305.748372,42.4501953 305.645833,42.4737956 305.574219,42.5209961 C305.502604,42.5681966 305.448893,42.6373698 305.413086,42.7285156 L305.413086,42.7285156 L304.739258,44.3837891 L304.373047,42.4892578 L304.788086,42.4892578 C304.866211,42.4892578 304.926432,42.476237 304.96875,42.4501953 C305.011068,42.4241536 305.042806,42.3753255 305.063965,42.3037109 C305.085124,42.2320964 305.095703,42.1279297 305.095703,41.9912109 C305.095703,41.8544922 305.085124,41.7503255 305.063965,41.6787109 C305.042806,41.6070964 305.011068,41.5574544 304.96875,41.5297852 C304.926432,41.5021159 304.866211,41.4882813 304.788086,41.4882813 L304.788086,41.4882813 L303.108398,41.4882813 C303.030273,41.4882813 302.970052,41.5021159 302.927734,41.5297852 C302.885417,41.5574544 302.853678,41.6070964 302.83252,41.6787109 C302.811361,41.7503255 302.800781,41.8544922 302.800781,41.9912109 C302.800781,42.1279297 302.811361,42.2320964 302.83252,42.3037109 C302.853678,42.3753255 302.885417,42.4241536 302.927734,42.4501953 C302.970052,42.476237 303.030273,42.4892578 303.108398,42.4892578 L303.108398,42.4892578 L303.274414,42.4892578 L303.972656,45.7900391 C303.998698,45.9072266 304.053223,45.9894206 304.13623,46.0366211 C304.219238,46.0838216 304.358398,46.1074219 304.553711,46.1074219 C304.745768,46.1074219 304.88737,46.0830078 304.978516,46.0341797 C305.069661,45.9853516 305.138021,45.9039714 305.183594,45.7900391 L305.183594,45.7900391 L305.876953,44.0566406 L306.560547,45.7900391 C306.602865,45.9039714 306.669596,45.9853516 306.760742,46.0341797 C306.851888,46.0830078 306.991862,46.1074219 307.180664,46.1074219 Z M311.912109,46.1074219 C312.23763,46.1074219 312.569661,46.0764974 312.908203,46.0146484 C313.246745,45.9527995 313.578776,45.8681641 313.904297,45.7607422 C313.988932,45.7314453 314.049967,45.6931966 314.087402,45.6459961 C314.124837,45.5987956 314.143555,45.5328776 314.143555,45.4482422 C314.143555,45.3636068 314.127279,45.2610677 314.094727,45.140625 C314.052409,44.984375 314.005208,44.8736979 313.953125,44.8085938 C313.901042,44.7434896 313.839193,44.7109375 313.767578,44.7109375 C313.728516,44.7109375 313.689453,44.7174479 313.650391,44.7304688 C313.061198,44.9095052 312.514323,44.9990234 312.009766,44.9990234 C311.697266,44.9990234 311.43929,44.9298503 311.23584,44.7915039 C311.032389,44.6531576 310.89974,44.453776 310.837891,44.1933594 L310.837891,44.1933594 L313.972656,44.1933594 C314.083333,44.1933594 314.162272,44.1705729 314.209473,44.125 C314.256673,44.0794271 314.280273,44.0013021 314.280273,43.890625 C314.280273,43.4023438 314.191569,42.9685872 314.01416,42.5893555 C313.836751,42.2101237 313.573893,41.9138997 313.225586,41.7006836 C312.877279,41.4874674 312.455729,41.3808594 311.960938,41.3808594 C311.469401,41.3808594 311.039714,41.4817708 310.671875,41.6835938 C310.304036,41.8854167 310.022461,42.1653646 309.827148,42.5234375 C309.631836,42.8815104 309.53418,43.2884115 309.53418,43.7441406 C309.53418,44.203125 309.627767,44.6108398 309.814941,44.9672852 C310.002116,45.3237305 310.27474,45.6028646 310.632812,45.8046875 C310.990885,46.0065104 311.417318,46.1074219 311.912109,46.1074219 Z M313.005859,43.2412109 L310.857422,43.2412109 C310.997396,42.7399089 311.365234,42.4892578 311.960938,42.4892578 C312.240885,42.4892578 312.471191,42.5551758 312.651855,42.6870117 C312.83252,42.8188477 312.950521,43.0035807 313.005859,43.2412109 L313.005859,43.2412109 Z M317.908203,46.1074219 C318.233724,46.1074219 318.565755,46.0764974 318.904297,46.0146484 C319.242839,45.9527995 319.57487,45.8681641 319.900391,45.7607422 C319.985026,45.7314453 320.046061,45.6931966 320.083496,45.6459961 C320.120931,45.5987956 320.139648,45.5328776 320.139648,45.4482422 C320.139648,45.3636068 320.123372,45.2610677 320.09082,45.140625 C320.048503,44.984375 320.001302,44.8736979 319.949219,44.8085938 C319.897135,44.7434896 319.835286,44.7109375 319.763672,44.7109375 C319.724609,44.7109375 319.685547,44.7174479 319.646484,44.7304688 C319.057292,44.9095052 318.510417,44.9990234 318.005859,44.9990234 C317.693359,44.9990234 317.435384,44.9298503 317.231934,44.7915039 C317.028483,44.6531576 316.895833,44.453776 316.833984,44.1933594 L316.833984,44.1933594 L319.96875,44.1933594 C320.079427,44.1933594 320.158366,44.1705729 320.205566,44.125 C320.252767,44.0794271 320.276367,44.0013021 320.276367,43.890625 C320.276367,43.4023438 320.187663,42.9685872 320.010254,42.5893555 C319.832845,42.2101237 319.569987,41.9138997 319.22168,41.7006836 C318.873372,41.4874674 318.451823,41.3808594 317.957031,41.3808594 C317.465495,41.3808594 317.035807,41.4817708 316.667969,41.6835938 C316.30013,41.8854167 316.018555,42.1653646 315.823242,42.5234375 C315.62793,42.8815104 315.530273,43.2884115 315.530273,43.7441406 C315.530273,44.203125 315.623861,44.6108398 315.811035,44.9672852 C315.99821,45.3237305 316.270833,45.6028646 316.628906,45.8046875 C316.986979,46.0065104 317.413411,46.1074219 317.908203,46.1074219 Z M319.001953,43.2412109 L316.853516,43.2412109 C316.99349,42.7399089 317.361328,42.4892578 317.957031,42.4892578 C318.236979,42.4892578 318.467285,42.5551758 318.647949,42.6870117 C318.828613,42.8188477 318.946615,43.0035807 319.001953,43.2412109 L319.001953,43.2412109 Z M323.396484,46 C323.474609,46 323.534831,45.9869792 323.577148,45.9609375 C323.619466,45.9348958 323.651204,45.8860677 323.672363,45.8144531 C323.693522,45.7428385 323.704102,45.6386719 323.704102,45.5019531 C323.704102,45.3652344 323.693522,45.2610677 323.672363,45.1894531 C323.651204,45.1178385 323.619466,45.0681966 323.577148,45.0405273 C323.534831,45.0128581 323.474609,44.9990234 323.396484,44.9990234 L323.396484,44.9990234 L323.166992,44.9990234 L323.166992,44.203125 C323.166992,43.9036458 323.218262,43.6220703 323.320801,43.3583984 C323.42334,43.0947266 323.559245,42.8839518 323.728516,42.7260742 C323.897786,42.5681966 324.076823,42.4892578 324.265625,42.4892578 C324.470703,42.4892578 324.617188,42.554362 324.705078,42.6845703 C324.792969,42.8147786 324.836914,43.0068359 324.836914,43.2607422 L324.836914,43.2607422 L324.836914,44.9990234 L324.607422,44.9990234 C324.529297,44.9990234 324.469076,45.0128581 324.426758,45.0405273 C324.38444,45.0681966 324.352702,45.1178385 324.331543,45.1894531 C324.310384,45.2610677 324.299805,45.3652344 324.299805,45.5019531 C324.299805,45.6386719 324.310384,45.7428385 324.331543,45.8144531 C324.352702,45.8860677 324.38444,45.9348958 324.426758,45.9609375 C324.469076,45.9869792 324.529297,46 324.607422,46 L324.607422,46 L326.433594,46 C326.511719,46 326.57194,45.9869792 326.614258,45.9609375 C326.656576,45.9348958 326.688314,45.8860677 326.709473,45.8144531 C326.730632,45.7428385 326.741211,45.6386719 326.741211,45.5019531 C326.741211,45.3652344 326.730632,45.2610677 326.709473,45.1894531 C326.688314,45.1178385 326.656576,45.0681966 326.614258,45.0405273 C326.57194,45.0128581 326.511719,44.9990234 326.433594,44.9990234 L326.433594,44.9990234 L326.057617,44.9990234 L326.057617,42.9726563 C326.057617,42.6503906 325.997396,42.3696289 325.876953,42.1303711 C325.75651,41.8911133 325.584798,41.7063802 325.361816,41.5761719 C325.138835,41.4459635 324.879232,41.3808594 324.583008,41.3808594 C323.938477,41.3808594 323.401367,41.7552083 322.97168,42.5039063 L322.97168,42.5039063 L322.97168,41.7958984 C322.97168,41.6852214 322.948079,41.6062826 322.900879,41.559082 C322.853678,41.5118815 322.77474,41.4882813 322.664062,41.4882813 L322.664062,41.4882813 L321.472656,41.4882813 C321.394531,41.4882813 321.33431,41.5021159 321.291992,41.5297852 C321.249674,41.5574544 321.217936,41.6070964 321.196777,41.6787109 C321.175618,41.7503255 321.165039,41.8544922 321.165039,41.9912109 C321.165039,42.1279297 321.175618,42.2320964 321.196777,42.3037109 C321.217936,42.3753255 321.249674,42.4241536 321.291992,42.4501953 C321.33431,42.476237 321.394531,42.4892578 321.472656,42.4892578 L321.472656,42.4892578 L321.946289,42.4892578 L321.946289,44.9990234 L321.570312,44.9990234 C321.492188,44.9990234 321.431966,45.0128581 321.389648,45.0405273 C321.347331,45.0681966 321.315592,45.1178385 321.294434,45.1894531 C321.273275,45.2610677 321.262695,45.3652344 321.262695,45.5019531 C321.262695,45.6386719 321.273275,45.7428385 321.294434,45.8144531 C321.315592,45.8860677 321.347331,45.9348958 321.389648,45.9609375 C321.431966,45.9869792 321.492188,46 321.570312,46 L321.570312,46 L323.396484,46 Z" id="justify-content:space-between" fill="#333D51" fill-rule="nonzero"></path>
        <path d="M383.698,47.154 C384.426,47.154 385.112,47.0233333 385.756,46.762 C386.4,46.5006667 386.955333,46.1436667 387.422,45.691 C387.888667,45.2383333 388.257333,44.7016667 388.528,44.081 C388.798667,43.4603333 388.934,42.8 388.934,42.1 C388.934,41.4 388.798667,40.7396667 388.528,40.119 C388.257333,39.4983333 387.888667,38.9616667 387.422,38.509 C386.955333,38.0563333 386.4,37.6993333 385.756,37.438 C385.112,37.1766667 384.426,37.046 383.698,37.046 C382.97,37.046 382.284,37.1766667 381.64,37.438 C380.996,37.6993333 380.440667,38.0563333 379.974,38.509 C379.507333,38.9616667 379.138667,39.4983333 378.868,40.119 C378.597333,40.7396667 378.462,41.4 378.462,42.1 C378.462,42.8 378.597333,43.4603333 378.868,44.081 C379.138667,44.7016667 379.507333,45.2383333 379.974,45.691 C380.440667,46.1436667 380.996,46.5006667 381.64,46.762 C382.284,47.0233333 382.97,47.154 383.698,47.154 Z M383.698,44.942 C383.306,44.942 382.942,44.8696667 382.606,44.725 C382.27,44.5803333 381.978333,44.382 381.731,44.13 C381.483667,43.878 381.29,43.577 381.15,43.227 C381.01,42.877 380.94,42.5013333 380.94,42.1 C380.94,41.6986667 381.01,41.323 381.15,40.973 C381.29,40.623 381.483667,40.322 381.731,40.07 C381.978333,39.818 382.27,39.6196667 382.606,39.475 C382.942,39.3303333 383.306,39.258 383.698,39.258 C384.09,39.258 384.454,39.3303333 384.79,39.475 C385.126,39.6196667 385.417667,39.818 385.665,40.07 C385.912333,40.322 386.106,40.623 386.246,40.973 C386.386,41.323 386.456,41.6986667 386.456,42.1 C386.456,42.5013333 386.386,42.877 386.246,43.227 C386.106,43.577 385.912333,43.878 385.665,44.13 C385.417667,44.382 385.126,44.5803333 384.79,44.725 C384.454,44.8696667 384.09,44.942 383.698,44.942 Z M392.364,47 L392.364,36.71 L390.096,37.2 L390.096,47 L392.364,47 Z M397.208,47.098 C397.572,47.098 397.922,47.042 398.258,46.93 C398.594,46.818 398.906667,46.6593333 399.196,46.454 L399.196,46.454 L399.196,47 L401.436,47 L401.436,36.71 L399.168,37.2 L399.168,39.986 C398.888,39.8273333 398.589333,39.706 398.272,39.622 C397.954667,39.538 397.623333,39.496 397.278,39.496 C396.746,39.496 396.244333,39.594 395.773,39.79 C395.301667,39.986 394.893333,40.2543333 394.548,40.595 C394.202667,40.9356667 393.929667,41.337 393.729,41.799 C393.528333,42.261 393.428,42.758 393.428,43.29 C393.428,43.822 393.526,44.319 393.722,44.781 C393.918,45.243 394.186333,45.6466667 394.527,45.992 C394.867667,46.3373333 395.269,46.608 395.731,46.804 C396.193,47 396.685333,47.098 397.208,47.098 Z M397.6,45.166 C397.058667,45.166 396.599,44.9863333 396.221,44.627 C395.843,44.2676667 395.654,43.822 395.654,43.29 C395.654,42.758 395.840667,42.3123333 396.214,41.953 C396.587333,41.5936667 397.049333,41.414 397.6,41.414 C397.908,41.414 398.197333,41.4653333 398.468,41.568 C398.738667,41.6706667 398.972,41.8106667 399.168,41.988 L399.168,41.988 L399.168,44.578 C398.962667,44.774 398.729333,44.921 398.468,45.019 C398.206667,45.117 397.917333,45.166 397.6,45.166 Z M406.532,47.14 C407.148,47.14 407.701,47.0513333 408.191,46.874 C408.681,46.6966667 409.159333,46.412 409.626,46.02 L409.626,46.02 L408.128,44.69 C407.950667,44.8673333 407.736,45.005 407.484,45.103 C407.232,45.201 406.952,45.25 406.644,45.25 C406.214667,45.25 405.841333,45.1403333 405.524,44.921 C405.206667,44.7016667 404.973333,44.4193333 404.824,44.074 L404.824,44.074 L410.102,44.074 L410.102,43.514 C410.102,42.9353333 410.008667,42.3963333 409.822,41.897 C409.635333,41.3976667 409.376333,40.9706667 409.045,40.616 C408.713667,40.2613333 408.319333,39.9813333 407.862,39.776 C407.404667,39.5706667 406.905333,39.468 406.364,39.468 C405.822667,39.468 405.316333,39.566 404.845,39.762 C404.373667,39.958 403.965333,40.2286667 403.62,40.574 C403.274667,40.9193333 403.001667,41.3276667 402.801,41.799 C402.600333,42.2703333 402.5,42.772 402.5,43.304 C402.5,43.836 402.605,44.3376667 402.815,44.809 C403.025,45.2803333 403.309667,45.6886667 403.669,46.034 C404.028333,46.3793333 404.455333,46.65 404.95,46.846 C405.444667,47.042 405.972,47.14 406.532,47.14 Z M407.876,42.492 L404.782,42.492 C404.894,42.1186667 405.085333,41.8293333 405.356,41.624 C405.626667,41.4186667 405.948667,41.316 406.322,41.316 C406.686,41.316 407.005667,41.4233333 407.281,41.638 C407.556333,41.8526667 407.754667,42.1373333 407.876,42.492 L407.876,42.492 Z M413.434,47 L413.434,42.296 C413.620667,42.0066667 413.865667,41.778 414.169,41.61 C414.472333,41.442 414.801333,41.358 415.156,41.358 C415.352,41.358 415.543333,41.379 415.73,41.421 C415.916667,41.463 416.084667,41.5166667 416.234,41.582 L416.234,41.582 L416.234,39.608 C416.140667,39.5426667 416.028667,39.4983333 415.898,39.475 C415.767333,39.4516667 415.594667,39.4353333 415.38,39.426 C414.978667,39.426 414.614667,39.5053333 414.288,39.664 C413.961333,39.8226667 413.676667,40.0466667 413.434,40.336 L413.434,40.336 L413.434,39.594 L411.166,39.594 L411.166,47 L413.434,47 Z M422.212,49.954 L422.212,46.608 C422.492,46.7666667 422.790667,46.888 423.108,46.972 C423.425333,47.056 423.756667,47.098 424.102,47.098 C424.634,47.098 425.135667,47 425.607,46.804 C426.078333,46.608 426.486667,46.3396667 426.832,45.999 C427.177333,45.6583333 427.450333,45.257 427.651,44.795 C427.851667,44.333 427.952,43.836 427.952,43.304 C427.952,42.772 427.854,42.275 427.658,41.813 C427.462,41.351 427.193667,40.9473333 426.853,40.602 C426.512333,40.2566667 426.111,39.986 425.649,39.79 C425.187,39.594 424.694667,39.496 424.172,39.496 C423.808,39.496 423.458,39.552 423.122,39.664 C422.786,39.776 422.473333,39.9346667 422.184,40.14 L422.184,40.14 L422.184,39.594 L419.944,39.594 L419.944,49.954 L422.212,49.954 Z M423.78,45.18 C423.472,45.18 423.182667,45.1286667 422.912,45.026 C422.641333,44.9233333 422.408,44.7833333 422.212,44.606 L422.212,44.606 L422.212,42.016 C422.417333,41.82 422.650667,41.673 422.912,41.575 C423.173333,41.477 423.462667,41.428 423.78,41.428 C424.321333,41.428 424.781,41.6076667 425.159,41.967 C425.537,42.3263333 425.726,42.772 425.726,43.304 C425.726,43.836 425.539333,44.2816667 425.166,44.641 C424.792667,45.0003333 424.330667,45.18 423.78,45.18 Z M432.768,47.14 C433.328,47.14 433.853,47.042 434.343,46.846 C434.833,46.65 435.257667,46.3793333 435.617,46.034 C435.976333,45.6886667 436.261,45.2803333 436.471,44.809 C436.681,44.3376667 436.786,43.836 436.786,43.304 C436.786,42.772 436.681,42.2703333 436.471,41.799 C436.261,41.3276667 435.976333,40.9193333 435.617,40.574 C435.257667,40.2286667 434.833,39.9556667 434.343,39.755 C433.853,39.5543333 433.328,39.454 432.768,39.454 C432.208,39.454 431.683,39.5543333 431.193,39.755 C430.703,39.9556667 430.278333,40.2286667 429.919,40.574 C429.559667,40.9193333 429.275,41.3276667 429.065,41.799 C428.855,42.2703333 428.75,42.772 428.75,43.304 C428.75,43.836 428.855,44.3376667 429.065,44.809 C429.275,45.2803333 429.559667,45.6886667 429.919,46.034 C430.278333,46.3793333 430.703,46.65 431.193,46.846 C431.683,47.042 432.208,47.14 432.768,47.14 Z M432.768,45.18 C432.264,45.18 431.837,44.998 431.487,44.634 C431.137,44.27 430.962,43.8266667 430.962,43.304 C430.962,42.772 431.137,42.324 431.487,41.96 C431.837,41.596 432.264,41.414 432.768,41.414 C433.272,41.414 433.699,41.596 434.049,41.96 C434.399,42.324 434.574,42.772 434.574,43.304 C434.574,43.8266667 434.399,44.27 434.049,44.634 C433.699,44.998 433.272,45.18 432.768,45.18 Z M440.776,47.14 C441.252,47.14 441.695333,47.077 442.106,46.951 C442.516667,46.825 442.869,46.65 443.163,46.426 C443.457,46.202 443.688,45.936 443.856,45.628 C444.024,45.32 444.108,44.9886667 444.108,44.634 C444.108,44.0553333 443.909667,43.577 443.513,43.199 C443.116333,42.821 442.554,42.5806667 441.826,42.478 L441.826,42.478 L440.356,42.254 C440.038667,42.2073333 439.814667,42.1396667 439.684,42.051 C439.553333,41.9623333 439.488,41.8433333 439.488,41.694 C439.488,41.5353333 439.576667,41.407 439.754,41.309 C439.931333,41.211 440.164667,41.162 440.454,41.162 C440.818,41.162 441.182,41.2156667 441.546,41.323 C441.91,41.4303333 442.292667,41.6006667 442.694,41.834 L442.694,41.834 L443.772,40.378 C443.314667,40.0886667 442.817667,39.867 442.281,39.713 C441.744333,39.559 441.21,39.482 440.678,39.482 C439.688667,39.482 438.909333,39.6966667 438.34,40.126 C437.770667,40.5553333 437.486,41.1433333 437.486,41.89 C437.486,42.4966667 437.682,42.989 438.074,43.367 C438.466,43.745 439.026,43.99 439.754,44.102 L439.754,44.102 L441.224,44.326 C441.485333,44.3633333 441.676667,44.4263333 441.798,44.515 C441.919333,44.6036667 441.98,44.718 441.98,44.858 C441.98,45.0353333 441.870333,45.1776667 441.651,45.285 C441.431667,45.3923333 441.135333,45.446 440.762,45.446 C440.388667,45.446 440.010667,45.383 439.628,45.257 C439.245333,45.131 438.820667,44.928 438.354,44.648 L438.354,44.648 L437.276,46.174 C437.705333,46.4913333 438.221,46.7316667 438.823,46.895 C439.425,47.0583333 440.076,47.14 440.776,47.14 Z M448.574,47.098 C448.788667,47.098 449.054667,47.077 449.372,47.035 C449.689333,46.993 449.950667,46.9393333 450.156,46.874 L450.156,46.874 L450.156,45.04 C449.969333,45.096 449.796667,45.1356667 449.638,45.159 C449.479333,45.1823333 449.311333,45.194 449.134,45.194 C448.77,45.194 448.515667,45.1263333 448.371,44.991 C448.226333,44.8556667 448.154,44.6246667 448.154,44.298 L448.154,44.298 L448.154,41.484 L450.226,41.484 L450.226,39.594 L448.154,39.594 L448.154,37.2 L445.886,37.69 L445.886,39.594 L444.388,39.594 L444.388,41.484 L445.886,41.484 L445.886,44.746 C445.886,45.5206667 446.112333,46.1063333 446.565,46.503 C447.017667,46.8996667 447.687333,47.098 448.574,47.098 Z M454.174,47.14 C454.65,47.14 455.093333,47.077 455.504,46.951 C455.914667,46.825 456.267,46.65 456.561,46.426 C456.855,46.202 457.086,45.936 457.254,45.628 C457.422,45.32 457.506,44.9886667 457.506,44.634 C457.506,44.0553333 457.307667,43.577 456.911,43.199 C456.514333,42.821 455.952,42.5806667 455.224,42.478 L455.224,42.478 L453.754,42.254 C453.436667,42.2073333 453.212667,42.1396667 453.082,42.051 C452.951333,41.9623333 452.886,41.8433333 452.886,41.694 C452.886,41.5353333 452.974667,41.407 453.152,41.309 C453.329333,41.211 453.562667,41.162 453.852,41.162 C454.216,41.162 454.58,41.2156667 454.944,41.323 C455.308,41.4303333 455.690667,41.6006667 456.092,41.834 L456.092,41.834 L457.17,40.378 C456.712667,40.0886667 456.215667,39.867 455.679,39.713 C455.142333,39.559 454.608,39.482 454.076,39.482 C453.086667,39.482 452.307333,39.6966667 451.738,40.126 C451.168667,40.5553333 450.884,41.1433333 450.884,41.89 C450.884,42.4966667 451.08,42.989 451.472,43.367 C451.864,43.745 452.424,43.99 453.152,44.102 L453.152,44.102 L454.622,44.326 C454.883333,44.3633333 455.074667,44.4263333 455.196,44.515 C455.317333,44.6036667 455.378,44.718 455.378,44.858 C455.378,45.0353333 455.268333,45.1776667 455.049,45.285 C454.829667,45.3923333 454.533333,45.446 454.16,45.446 C453.786667,45.446 453.408667,45.383 453.026,45.257 C452.643333,45.131 452.218667,44.928 451.752,44.648 L451.752,44.648 L450.674,46.174 C451.103333,46.4913333 451.619,46.7316667 452.221,46.895 C452.823,47.0583333 453.474,47.14 454.174,47.14 Z" id="Olderposts" fill="#333D51" fill-rule="nonzero"></path>
        <path d="M13.08,47 L13.08,41.092 L17.672,47 L19.8,47 L19.8,37.2 L17.532,37.2 L17.532,42.884 L13.08,37.2 L10.812,37.2 L10.812,47 L13.08,47 Z M25.008,47.14 C25.624,47.14 26.177,47.0513333 26.667,46.874 C27.157,46.6966667 27.6353333,46.412 28.102,46.02 L28.102,46.02 L26.604,44.69 C26.4266667,44.8673333 26.212,45.005 25.96,45.103 C25.708,45.201 25.428,45.25 25.12,45.25 C24.6906667,45.25 24.3173333,45.1403333 24,44.921 C23.6826667,44.7016667 23.4493333,44.4193333 23.3,44.074 L23.3,44.074 L28.578,44.074 L28.578,43.514 C28.578,42.9353333 28.4846667,42.3963333 28.298,41.897 C28.1113333,41.3976667 27.8523333,40.9706667 27.521,40.616 C27.1896667,40.2613333 26.7953333,39.9813333 26.338,39.776 C25.8806667,39.5706667 25.3813333,39.468 24.84,39.468 C24.2986667,39.468 23.7923333,39.566 23.321,39.762 C22.8496667,39.958 22.4413333,40.2286667 22.096,40.574 C21.7506667,40.9193333 21.4776667,41.3276667 21.277,41.799 C21.0763333,42.2703333 20.976,42.772 20.976,43.304 C20.976,43.836 21.081,44.3376667 21.291,44.809 C21.501,45.2803333 21.7856667,45.6886667 22.145,46.034 C22.5043333,46.3793333 22.9313333,46.65 23.426,46.846 C23.9206667,47.042 24.448,47.14 25.008,47.14 Z M26.352,42.492 L23.258,42.492 C23.37,42.1186667 23.5613333,41.8293333 23.832,41.624 C24.1026667,41.4186667 24.4246667,41.316 24.798,41.316 C25.162,41.316 25.4816667,41.4233333 25.757,41.638 C26.0323333,41.8526667 26.2306667,42.1373333 26.352,42.492 L26.352,42.492 Z M33.114,47 L34.388,42.716 L35.676,47 L37.846,47 L39.876,39.594 L37.762,39.594 L36.684,43.962 L35.354,39.594 L33.478,39.594 L32.148,43.948 L31.056,39.594 L28.914,39.594 L30.93,47 L33.114,47 Z M44.244,47.14 C44.86,47.14 45.413,47.0513333 45.903,46.874 C46.393,46.6966667 46.8713333,46.412 47.338,46.02 L47.338,46.02 L45.84,44.69 C45.6626667,44.8673333 45.448,45.005 45.196,45.103 C44.944,45.201 44.664,45.25 44.356,45.25 C43.9266667,45.25 43.5533333,45.1403333 43.236,44.921 C42.9186667,44.7016667 42.6853333,44.4193333 42.536,44.074 L42.536,44.074 L47.814,44.074 L47.814,43.514 C47.814,42.9353333 47.7206667,42.3963333 47.534,41.897 C47.3473333,41.3976667 47.0883333,40.9706667 46.757,40.616 C46.4256667,40.2613333 46.0313333,39.9813333 45.574,39.776 C45.1166667,39.5706667 44.6173333,39.468 44.076,39.468 C43.5346667,39.468 43.0283333,39.566 42.557,39.762 C42.0856667,39.958 41.6773333,40.2286667 41.332,40.574 C40.9866667,40.9193333 40.7136667,41.3276667 40.513,41.799 C40.3123333,42.2703333 40.212,42.772 40.212,43.304 C40.212,43.836 40.317,44.3376667 40.527,44.809 C40.737,45.2803333 41.0216667,45.6886667 41.381,46.034 C41.7403333,46.3793333 42.1673333,46.65 42.662,46.846 C43.1566667,47.042 43.684,47.14 44.244,47.14 Z M45.588,42.492 L42.494,42.492 C42.606,42.1186667 42.7973333,41.8293333 43.068,41.624 C43.3386667,41.4186667 43.6606667,41.316 44.034,41.316 C44.398,41.316 44.7176667,41.4233333 44.993,41.638 C45.2683333,41.8526667 45.4666667,42.1373333 45.588,42.492 L45.588,42.492 Z M51.146,47 L51.146,42.296 C51.3326667,42.0066667 51.5776667,41.778 51.881,41.61 C52.1843333,41.442 52.5133333,41.358 52.868,41.358 C53.064,41.358 53.2553333,41.379 53.442,41.421 C53.6286667,41.463 53.7966667,41.5166667 53.946,41.582 L53.946,41.582 L53.946,39.608 C53.8526667,39.5426667 53.7406667,39.4983333 53.61,39.475 C53.4793333,39.4516667 53.3066667,39.4353333 53.092,39.426 C52.6906667,39.426 52.3266667,39.5053333 52,39.664 C51.6733333,39.8226667 51.3886667,40.0466667 51.146,40.336 L51.146,40.336 L51.146,39.594 L48.878,39.594 L48.878,47 L51.146,47 Z M59.924,49.954 L59.924,46.608 C60.204,46.7666667 60.5026667,46.888 60.82,46.972 C61.1373333,47.056 61.4686667,47.098 61.814,47.098 C62.346,47.098 62.8476667,47 63.319,46.804 C63.7903333,46.608 64.1986667,46.3396667 64.544,45.999 C64.8893333,45.6583333 65.1623333,45.257 65.363,44.795 C65.5636667,44.333 65.664,43.836 65.664,43.304 C65.664,42.772 65.566,42.275 65.37,41.813 C65.174,41.351 64.9056667,40.9473333 64.565,40.602 C64.2243333,40.2566667 63.823,39.986 63.361,39.79 C62.899,39.594 62.4066667,39.496 61.884,39.496 C61.52,39.496 61.17,39.552 60.834,39.664 C60.498,39.776 60.1853333,39.9346667 59.896,40.14 L59.896,40.14 L59.896,39.594 L57.656,39.594 L57.656,49.954 L59.924,49.954 Z M61.492,45.18 C61.184,45.18 60.8946667,45.1286667 60.624,45.026 C60.3533333,44.9233333 60.12,44.7833333 59.924,44.606 L59.924,44.606 L59.924,42.016 C60.1293333,41.82 60.3626667,41.673 60.624,41.575 C60.8853333,41.477 61.1746667,41.428 61.492,41.428 C62.0333333,41.428 62.493,41.6076667 62.871,41.967 C63.249,42.3263333 63.438,42.772 63.438,43.304 C63.438,43.836 63.2513333,44.2816667 62.878,44.641 C62.5046667,45.0003333 62.0426667,45.18 61.492,45.18 Z M70.48,47.14 C71.04,47.14 71.565,47.042 72.055,46.846 C72.545,46.65 72.9696667,46.3793333 73.329,46.034 C73.6883333,45.6886667 73.973,45.2803333 74.183,44.809 C74.393,44.3376667 74.498,43.836 74.498,43.304 C74.498,42.772 74.393,42.2703333 74.183,41.799 C73.973,41.3276667 73.6883333,40.9193333 73.329,40.574 C72.9696667,40.2286667 72.545,39.9556667 72.055,39.755 C71.565,39.5543333 71.04,39.454 70.48,39.454 C69.92,39.454 69.395,39.5543333 68.905,39.755 C68.415,39.9556667 67.9903333,40.2286667 67.631,40.574 C67.2716667,40.9193333 66.987,41.3276667 66.777,41.799 C66.567,42.2703333 66.462,42.772 66.462,43.304 C66.462,43.836 66.567,44.3376667 66.777,44.809 C66.987,45.2803333 67.2716667,45.6886667 67.631,46.034 C67.9903333,46.3793333 68.415,46.65 68.905,46.846 C69.395,47.042 69.92,47.14 70.48,47.14 Z M70.48,45.18 C69.976,45.18 69.549,44.998 69.199,44.634 C68.849,44.27 68.674,43.8266667 68.674,43.304 C68.674,42.772 68.849,42.324 69.199,41.96 C69.549,41.596 69.976,41.414 70.48,41.414 C70.984,41.414 71.411,41.596 71.761,41.96 C72.111,42.324 72.286,42.772 72.286,43.304 C72.286,43.8266667 72.111,44.27 71.761,44.634 C71.411,44.998 70.984,45.18 70.48,45.18 Z M78.488,47.14 C78.964,47.14 79.4073333,47.077 79.818,46.951 C80.2286667,46.825 80.581,46.65 80.875,46.426 C81.169,46.202 81.4,45.936 81.568,45.628 C81.736,45.32 81.82,44.9886667 81.82,44.634 C81.82,44.0553333 81.6216667,43.577 81.225,43.199 C80.8283333,42.821 80.266,42.5806667 79.538,42.478 L79.538,42.478 L78.068,42.254 C77.7506667,42.2073333 77.5266667,42.1396667 77.396,42.051 C77.2653333,41.9623333 77.2,41.8433333 77.2,41.694 C77.2,41.5353333 77.2886667,41.407 77.466,41.309 C77.6433333,41.211 77.8766667,41.162 78.166,41.162 C78.53,41.162 78.894,41.2156667 79.258,41.323 C79.622,41.4303333 80.0046667,41.6006667 80.406,41.834 L80.406,41.834 L81.484,40.378 C81.0266667,40.0886667 80.5296667,39.867 79.993,39.713 C79.4563333,39.559 78.922,39.482 78.39,39.482 C77.4006667,39.482 76.6213333,39.6966667 76.052,40.126 C75.4826667,40.5553333 75.198,41.1433333 75.198,41.89 C75.198,42.4966667 75.394,42.989 75.786,43.367 C76.178,43.745 76.738,43.99 77.466,44.102 L77.466,44.102 L78.936,44.326 C79.1973333,44.3633333 79.3886667,44.4263333 79.51,44.515 C79.6313333,44.6036667 79.692,44.718 79.692,44.858 C79.692,45.0353333 79.5823333,45.1776667 79.363,45.285 C79.1436667,45.3923333 78.8473333,45.446 78.474,45.446 C78.1006667,45.446 77.7226667,45.383 77.34,45.257 C76.9573333,45.131 76.5326667,44.928 76.066,44.648 L76.066,44.648 L74.988,46.174 C75.4173333,46.4913333 75.933,46.7316667 76.535,46.895 C77.137,47.0583333 77.788,47.14 78.488,47.14 Z M86.286,47.098 C86.5006667,47.098 86.7666667,47.077 87.084,47.035 C87.4013333,46.993 87.6626667,46.9393333 87.868,46.874 L87.868,46.874 L87.868,45.04 C87.6813333,45.096 87.5086667,45.1356667 87.35,45.159 C87.1913333,45.1823333 87.0233333,45.194 86.846,45.194 C86.482,45.194 86.2276667,45.1263333 86.083,44.991 C85.9383333,44.8556667 85.866,44.6246667 85.866,44.298 L85.866,44.298 L85.866,41.484 L87.938,41.484 L87.938,39.594 L85.866,39.594 L85.866,37.2 L83.598,37.69 L83.598,39.594 L82.1,39.594 L82.1,41.484 L83.598,41.484 L83.598,44.746 C83.598,45.5206667 83.8243333,46.1063333 84.277,46.503 C84.7296667,46.8996667 85.3993333,47.098 86.286,47.098 Z M91.886,47.14 C92.362,47.14 92.8053333,47.077 93.216,46.951 C93.6266667,46.825 93.979,46.65 94.273,46.426 C94.567,46.202 94.798,45.936 94.966,45.628 C95.134,45.32 95.218,44.9886667 95.218,44.634 C95.218,44.0553333 95.0196667,43.577 94.623,43.199 C94.2263333,42.821 93.664,42.5806667 92.936,42.478 L92.936,42.478 L91.466,42.254 C91.1486667,42.2073333 90.9246667,42.1396667 90.794,42.051 C90.6633333,41.9623333 90.598,41.8433333 90.598,41.694 C90.598,41.5353333 90.6866667,41.407 90.864,41.309 C91.0413333,41.211 91.2746667,41.162 91.564,41.162 C91.928,41.162 92.292,41.2156667 92.656,41.323 C93.02,41.4303333 93.4026667,41.6006667 93.804,41.834 L93.804,41.834 L94.882,40.378 C94.4246667,40.0886667 93.9276667,39.867 93.391,39.713 C92.8543333,39.559 92.32,39.482 91.788,39.482 C90.7986667,39.482 90.0193333,39.6966667 89.45,40.126 C88.8806667,40.5553333 88.596,41.1433333 88.596,41.89 C88.596,42.4966667 88.792,42.989 89.184,43.367 C89.576,43.745 90.136,43.99 90.864,44.102 L90.864,44.102 L92.334,44.326 C92.5953333,44.3633333 92.7866667,44.4263333 92.908,44.515 C93.0293333,44.6036667 93.09,44.718 93.09,44.858 C93.09,45.0353333 92.9803333,45.1776667 92.761,45.285 C92.5416667,45.3923333 92.2453333,45.446 91.872,45.446 C91.4986667,45.446 91.1206667,45.383 90.738,45.257 C90.3553333,45.131 89.9306667,44.928 89.464,44.648 L89.464,44.648 L88.386,46.174 C88.8153333,46.4913333 89.331,46.7316667 89.933,46.895 C90.535,47.0583333 91.186,47.14 91.886,47.14 Z" id="Newerposts" fill="#333D51" fill-rule="nonzero"></path>
    </g>
</svg>